<svg width="80" height="80" viewBox="0 0 80 80" fill="none" xmlns="http://www.w3.org/2000/svg">
<path d="M60 55H28.8062L22.4 60.4688L15.9937 55H2.5V58.75C2.5 63.5297 5.80156 67.4234 9.88437 67.5C10.2641 69.8625 11.1828 71.9969 12.5656 73.6672C14.6109 76.1375 17.5844 77.5 20.9375 77.5H41.5625C44.9156 77.5 47.8891 76.1375 49.9344 73.6641C51.3172 71.9938 52.2359 69.8594 52.6156 67.4969C54.7844 67.4578 56.7328 66.3406 58.0844 64.5859C59.3467 62.9039 60.0199 60.8529 60 58.75V55ZM16.4062 50L22.3953 54.4047L28.4375 50H60V48.75C59.9982 47.3097 59.5 45.9141 58.5892 44.7984C57.6784 43.6827 56.4108 42.9151 55 42.625C54.8719 37.9859 52.9688 34.1031 49.4516 31.375C46.1984 28.8375 41.8516 27.5 36.875 27.5H25.625C14.9656 27.5 7.74531 33.5578 7.5 42.625C6.08924 42.9151 4.82162 43.6827 3.91083 44.7984C3.00003 45.9141 2.50176 47.3097 2.5 48.75V50H16.4062Z" fill="#2CB4D7"/>
<path d="M72.3562 15H60.7016L62.0953 9.42812L69.0625 7.03125L67.5 2.5L57.8125 5.625L55.5484 15H32.5V20H35.4297L35.7203 22.5H36.875C42.9688 22.5 48.3844 24.2031 52.5187 27.425C54.8183 29.1969 56.6825 31.4709 57.9688 34.0734C58.7613 35.688 59.3256 37.405 59.6453 39.175C61.9736 40.6085 63.7002 42.8409 64.5022 45.4549C65.3042 48.0689 65.1268 50.8854 64.0031 53.3781C64.6615 55.0926 64.9994 56.9134 65 58.75C65 62.2406 63.8125 65.5672 61.6562 68.1172C60.3218 69.7069 58.6126 70.9392 56.6828 71.7031C56.0252 73.5773 55.0454 75.3222 53.7875 76.8594C53.6031 77.0812 53.4141 77.2984 53.2203 77.5078H65C67.5 77.5078 68.5938 76.2578 68.9062 73.9141L74.5938 20.0078H77.5V15H72.3562Z" fill="#2CB4D7"/>
</svg>
