<svg width="80" height="80" viewBox="0 0 80 80" fill="none" xmlns="http://www.w3.org/2000/svg">
<path d="M37.0833 13.3333C36.5308 13.3333 36.0009 13.5528 35.6102 13.9435C35.2195 14.3342 35 14.8641 35 15.4166C35 15.9692 35.2195 16.4991 35.6102 16.8898C36.0009 17.2805 36.5308 17.5 37.0833 17.5H42.6666C43.795 17.5 44.8216 18.15 45.3033 19.17L50.6583 30.4866C49.7808 30.162 48.8523 29.9972 47.9166 30H42.6266C40.0732 29.9999 37.5702 30.7109 35.398 32.0532C33.2259 33.3955 31.4704 35.3162 30.3283 37.6L28.295 41.6666H15.8333C13.5047 41.6671 11.2224 42.3181 9.24393 43.5461C7.26541 44.7742 5.66927 46.5305 4.63542 48.617C3.60157 50.7036 3.17113 53.0375 3.39261 55.3556C3.6141 57.6736 4.4787 59.8838 5.88896 61.7368C7.29922 63.5899 9.19907 65.0121 11.3743 65.8433C13.5496 66.6744 15.9138 66.8815 18.2004 66.441C20.487 66.0005 22.6051 64.9301 24.3159 63.3503C26.0268 61.7705 27.2623 59.7443 27.8833 57.5H35.2666C37.2011 57.4999 39.0973 56.9612 40.7429 55.9441C42.3884 54.9271 43.7182 53.4719 44.5833 51.7416L45.8716 49.1666H41.2116L41.2016 49.19C41.0794 49.1754 40.9564 49.1676 40.8333 49.1666H27.5C27.4311 49.1666 27.3633 49.1689 27.2966 49.1733C26.7636 47.9527 26.0389 46.8252 25.15 45.8333H47.9166C49.5628 45.8339 51.1682 45.3214 52.5094 44.3669C53.8507 43.4125 54.8611 42.0638 55.4 40.5083L57.0116 43.915C54.4421 45.7096 52.6405 48.404 51.9638 51.4644C51.2872 54.5247 51.7849 57.7275 53.3583 60.4381C54.9317 63.1488 57.466 65.1695 60.459 66.0997C63.452 67.0299 66.6852 66.8019 69.518 65.4607C72.3508 64.1195 74.5763 61.7631 75.7536 58.8584C76.931 55.9538 76.9741 52.7128 75.8746 49.7778C74.7751 46.8427 72.6131 44.4279 69.817 43.0117C67.021 41.5956 63.795 41.2815 60.7783 42.1316L58.95 38.2683C59.2933 38.3116 59.6433 38.3333 60 38.3333H66.25C67.4 38.3333 68.3333 37.4 68.3333 36.25V23.75C68.3333 22.6 67.4 21.6666 66.25 21.6666H60C57.0266 21.6666 54.4166 23.225 52.9416 25.5683L49.07 17.3866C48.4962 16.1742 47.5899 15.1496 46.4567 14.4321C45.3234 13.7145 44.0097 13.3335 42.6683 13.3333H37.0833ZM7.49997 54.1666C7.49997 51.9565 8.37794 49.8369 9.94075 48.2741C11.5036 46.7113 13.6232 45.8333 15.8333 45.8333C18.0434 45.8333 20.1631 46.7113 21.7259 48.2741C23.2887 49.8369 24.1666 51.9565 24.1666 54.1666C24.1666 56.3768 23.2887 58.4964 21.7259 60.0592C20.1631 61.622 18.0434 62.5 15.8333 62.5C13.6232 62.5 11.5036 61.622 9.94075 60.0592C8.37794 58.4964 7.49997 56.3768 7.49997 54.1666ZM58.8333 47.7633L62.2833 55.0583C62.4004 55.3056 62.5651 55.5275 62.7679 55.7112C62.9707 55.8948 63.2077 56.0368 63.4654 56.1289C63.7231 56.221 63.9964 56.2614 64.2697 56.2478C64.543 56.2343 64.811 56.1671 65.0583 56.05C65.3056 55.9329 65.5275 55.7682 65.7112 55.5654C65.8948 55.3626 66.0368 55.1255 66.1289 54.8679C66.2209 54.6102 66.2614 54.3369 66.2478 54.0636C66.2343 53.7903 66.1671 53.5223 66.05 53.275L62.6 45.98C63.1077 45.8833 63.63 45.8344 64.1666 45.8333C66.1271 45.8334 68.0248 46.5246 69.526 47.7855C71.0273 49.0465 72.0359 50.7963 72.3745 52.7273C72.7131 54.6583 72.3601 56.6469 71.3774 58.3434C70.3948 60.0398 68.8456 61.3356 67.0021 62.0027C65.1586 62.6698 63.1389 62.6656 61.2982 61.9908C59.4575 61.316 57.9136 60.0139 56.938 58.3134C55.9625 56.6128 55.6177 54.6228 55.9644 52.6932C56.311 50.7636 57.3269 49.018 58.8333 47.7633ZM55.8333 30C55.8333 28.8949 56.2723 27.8351 57.0537 27.0537C57.8351 26.2723 58.8949 25.8333 60 25.8333H64.1666V34.1666H60C59.4528 34.1666 58.911 34.0589 58.4055 33.8495C57.8999 33.6401 57.4406 33.3332 57.0537 32.9463C56.6668 32.5593 56.3599 32.1 56.1505 31.5945C55.9411 31.089 55.8333 30.5472 55.8333 30Z" fill="#2CB4D7"/>
</svg>
