<svg width="80" height="80" viewBox="0 0 80 80" fill="none" xmlns="http://www.w3.org/2000/svg">
<path d="M10 46.6667C10 51 12.8 54.6667 16.6667 56.0667V66.6667H10V73.3334H30V66.6667H23.3333V56.0667C27.2 54.6667 30 51 30 46.6667V20H10V46.6667ZM16.6667 26.6667H23.3333V36.6667H16.6667V26.6667ZM73.3333 30L63.3333 26.6334V6.66669H46.6667V26.6667L36.6667 30.0334V73.3334H73.3333V30ZM53.3333 13.3334H56.6667V16.6667H53.3333V13.3334ZM43.3333 34.8L53.3333 31.5334V23.3334H56.6667V31.5334L66.6667 34.8V40H43.3333V34.8ZM66.6667 66.6667H43.3333V60H66.6667V66.6667Z" fill="#2CB4D7"/>
</svg>
