<svg width="80" height="80" viewBox="0 0 80 80" fill="none" xmlns="http://www.w3.org/2000/svg">
<path d="M61.9333 16.6667H50V10H30V16.6667H18.1L10 40V70H20V63.3333H60V70H70V40L61.9333 16.6667ZM21.6667 53.3333C18.9 53.3333 16.6667 51.1 16.6667 48.3333C16.6667 45.5667 18.9 43.3333 21.6667 43.3333C24.4333 43.3333 26.6667 45.5667 26.6667 48.3333C26.6667 51.1 24.4333 53.3333 21.6667 53.3333ZM58.3333 53.3333C55.5667 53.3333 53.3333 51.1 53.3333 48.3333C53.3333 45.5667 55.5667 43.3333 58.3333 43.3333C61.1 43.3333 63.3333 45.5667 63.3333 48.3333C63.3333 51.1 61.1 53.3333 58.3333 53.3333ZM16.6667 36.6667L21.6667 21.6667H58.3333L63.3333 36.6667H16.6667Z" fill="#2CB4D7"/>
</svg>
