<svg width="80" height="80" viewBox="0 0 80 80" fill="none" xmlns="http://www.w3.org/2000/svg">
<path d="M55.9998 5.33331C54.5854 5.33331 53.2288 5.89522 52.2286 6.89541C51.2284 7.8956 50.6665 9.25216 50.6665 10.6666H10.6665V16L15.9998 21.3333L21.3332 16L26.6665 21.3333L31.9998 16L37.3332 21.3333H50.6665C50.6665 22.7478 51.2284 24.1044 52.2286 25.1045C53.2288 26.1047 54.5854 26.6666 55.9998 26.6666H66.6665C67.3737 26.6666 68.052 26.3857 68.5521 25.8856C69.0522 25.3855 69.3332 24.7072 69.3332 24V7.99998C69.3332 7.29274 69.0522 6.61446 68.5521 6.11436C68.052 5.61426 67.3737 5.33331 66.6665 5.33331H55.9998ZM58.6665 13.3333C58.6665 12.6261 58.9475 11.9478 59.4476 11.4477C59.9476 10.9476 60.6259 10.6666 61.3332 10.6666C62.0404 10.6666 62.7187 10.9476 63.2188 11.4477C63.7189 11.9478 63.9998 12.6261 63.9998 13.3333V18.6666C63.9998 19.3739 63.7189 20.0522 63.2188 20.5523C62.7187 21.0524 62.0404 21.3333 61.3332 21.3333C60.6259 21.3333 59.9476 21.0524 59.4476 20.5523C58.9475 20.0522 58.6665 19.3739 58.6665 18.6666V13.3333ZM11.4452 49.888C10.9467 50.3877 10.6667 51.0648 10.6665 51.7706V72C10.6665 72.7072 10.9475 73.3855 11.4476 73.8856C11.9477 74.3857 12.6259 74.6666 13.3332 74.6666H21.3332C22.0404 74.6666 22.7187 74.3857 23.2188 73.8856C23.7189 73.3855 23.9998 72.7072 23.9998 72V69.3333H55.9998V72C55.9998 72.7072 56.2808 73.3855 56.7809 73.8856C57.281 74.3857 57.9593 74.6666 58.6665 74.6666H66.6665C67.3737 74.6666 68.052 74.3857 68.5521 73.8856C69.0522 73.3855 69.3332 72.7072 69.3332 72V51.7706C69.333 51.0648 69.053 50.3877 68.5545 49.888L63.9998 45.3333L56.7785 33.296C56.5412 32.8999 56.205 32.5722 55.803 32.345C55.401 32.1179 54.9469 31.999 54.4852 32H25.5145C25.0537 31.9999 24.6006 32.1192 24.1997 32.3464C23.7987 32.5735 23.4634 32.9007 23.2265 33.296L15.9998 45.3333L11.4452 49.888ZM59.3812 48H20.6185L27.0185 37.3333H52.9812L59.3812 48ZM29.3332 57.7493V59.7333C29.3332 60.1577 29.1646 60.5646 28.8645 60.8647C28.5645 61.1647 28.1575 61.3333 27.7332 61.3333H17.5998C17.1755 61.3333 16.7685 61.1647 16.4685 60.8647C16.1684 60.5646 15.9998 60.1577 15.9998 59.7333V55.2853C15.9999 55.0486 16.0526 54.8148 16.154 54.6009C16.2554 54.387 16.4029 54.1982 16.5861 54.0482C16.7692 53.8982 16.9834 53.7907 17.2131 53.7335C17.4428 53.6763 17.6824 53.6708 17.9145 53.7173L27.6212 55.6586C28.104 55.7559 28.5383 56.0173 28.8504 56.3984C29.1624 56.7794 29.333 57.2568 29.3332 57.7493ZM63.9998 55.936V59.7333C63.9998 60.1577 63.8313 60.5646 63.5312 60.8647C63.2312 61.1647 62.8242 61.3333 62.3998 61.3333H52.2665C51.8422 61.3333 51.4352 61.1647 51.1351 60.8647C50.8351 60.5646 50.6665 60.1577 50.6665 59.7333V57.312C50.6667 56.9424 50.7948 56.5842 51.0291 56.2984C51.2634 56.0126 51.5895 55.8167 51.9518 55.744L61.4452 53.8453C61.7548 53.7829 62.0744 53.7901 62.3809 53.8662C62.6874 53.9424 62.9732 54.0856 63.2176 54.2857C63.462 54.4857 63.659 54.7375 63.7942 55.0229C63.9295 55.3083 63.9997 55.6202 63.9998 55.936Z" fill="#2CB4D7"/>
</svg>
