<svg width="80" height="80" viewBox="0 0 80 80" fill="none" xmlns="http://www.w3.org/2000/svg">
<path d="M5.57666 43.3267L6.40999 39.9934H21.3433L20.51 43.3267H5.57666ZM19.1033 60.8967C17.4789 59.2767 16.6667 57.3111 16.6667 55H9.23333L10.9 48.3267H24.43L27.3 36.6734H34.43L37.7633 23.34H17.7567L18.77 19.6734C18.9744 18.8 19.4078 18.0811 20.07 17.5167C20.7255 16.95 21.5178 16.6667 22.4467 16.6667H59.3567L56.6567 28.3334H63.5867L72.6267 40.3867L69.74 55H65.8933C65.8933 57.3089 65.0822 59.2756 63.46 60.9C61.8378 62.5245 59.8711 63.3356 57.56 63.3334C55.2489 63.3311 53.2833 62.52 51.6633 60.9C50.0433 59.28 49.2322 57.3134 49.23 55H33.3333C33.3333 57.3089 32.5222 59.2756 30.9 60.9C29.2778 62.5245 27.3111 63.3356 25 63.3334C22.6889 63.3311 20.7222 62.52 19.1 60.9M12.2467 31.67L13.08 28.3367H31.3467L30.5133 31.67H12.2467ZM25 60C26.3711 60 27.5478 59.51 28.53 58.53C29.51 57.5478 30 56.3711 30 55C30 53.6289 29.51 52.4522 28.53 51.47C27.55 50.4878 26.3733 49.9978 25 50C23.6267 50.0022 22.45 50.4922 21.47 51.47C20.49 52.4522 20 53.6289 20 55C20 56.3711 20.49 57.5478 21.47 58.53C22.4522 59.51 23.6289 60 25 60ZM57.5667 60C58.9378 60 60.1133 59.51 61.0933 58.53C62.0733 57.5478 62.5633 56.3711 62.5633 55C62.5633 53.6289 62.0733 52.4522 61.0933 51.47C60.1133 50.4878 58.9367 49.9978 57.5633 50C56.19 50.0022 55.0144 50.4922 54.0367 51.47C53.0544 52.4522 52.5633 53.6289 52.5633 55C52.5633 56.3711 53.0533 57.5478 54.0333 58.53C55.0155 59.51 56.1933 60 57.5667 60ZM52.9533 44.1667H68.4633L69.05 41.2L61.9233 31.6667H55.8633L52.9533 44.1667Z" fill="#2CB4D7"/>
</svg>
