<svg width="80" height="80" viewBox="0 0 80 80" fill="none" xmlns="http://www.w3.org/2000/svg">
<path d="M51.1001 36.8333C47.1673 39.6274 44.4867 43.8518 43.6334 48.6L38.5001 38.7666L25.5334 51.6666L26.6667 60L23.1667 63.5333L17.2667 52.9L6.66675 47.0333L10.2001 43.5L18.4667 44.6666L31.4334 31.6666L6.66675 18.7333L11.3667 14.0333L42.0334 21.1L55.0001 8.13331C55.462 7.66567 56.0122 7.29439 56.6188 7.04099C57.2253 6.78759 57.8761 6.6571 58.5334 6.6571C59.1907 6.6571 59.8415 6.78759 60.4481 7.04099C61.0546 7.29439 61.6048 7.66567 62.0667 8.13331C64.0001 10.1 64.0001 13.3333 62.0667 15.2L49.1001 28.1666L51.1001 36.8333ZM73.3334 51.6666C73.3334 60.3333 61.6667 73.3333 61.6667 73.3333C61.6667 73.3333 50.0001 60.3333 50.0001 51.6666C50.0001 45.3333 55.3334 40 61.6667 40C68.0001 40 73.3334 45.3333 73.3334 51.6666ZM65.6667 52C65.6667 50 63.6667 48 61.6667 48C59.6667 48 57.6667 49.6666 57.6667 52C57.6667 54 59.3334 56 61.6667 56C64.0001 56 66.0001 54 65.6667 52Z" fill="#2CB4D7"/>
</svg>
