<svg width="81" height="81" viewBox="0 0 81 81" fill="none" xmlns="http://www.w3.org/2000/svg">
<path d="M77.5278 56.1H4.19448C3.61515 56.0942 3.04137 56.2132 2.51218 56.4491C1.983 56.6849 1.51083 57.032 1.12781 57.4666C0.718916 57.9117 0.41172 58.4403 0.22753 59.0159C0.0433402 59.5915 -0.0134337 60.2002 0.0611462 60.8C0.350886 63.2954 1.13263 65.7086 2.36115 67.9C2.43572 68.0366 2.54706 68.1496 2.68256 68.2262C2.81806 68.3028 2.9723 68.3399 3.12781 68.3333C3.62661 68.2843 4.12901 68.2843 4.62781 68.3333C6.56115 68.6 9.59448 66.0666 10.7278 64.6666C11.5166 63.7013 12.5073 62.9205 13.6303 62.3791C14.7533 61.8378 15.9813 61.5491 17.2278 61.5333C18.6522 61.5297 20.0535 61.8927 21.297 62.5874C22.5404 63.2821 23.5842 64.2851 24.3278 65.5C24.8752 66.2602 25.5767 66.8966 26.3865 67.3676C27.1963 67.8385 28.0963 68.1335 29.0278 68.2333C30.2032 68.1014 31.341 67.7391 32.3762 67.1671C33.4115 66.5952 34.3238 65.8248 35.0611 64.9C35.9101 63.7236 37.0515 62.7892 38.3723 62.1892C39.6932 61.5893 41.1478 61.3445 42.5923 61.4792C44.0367 61.6139 45.421 62.1233 46.6082 62.9571C47.7954 63.791 48.7443 64.9202 49.3611 66.2333C49.713 66.804 50.2027 67.2771 50.7851 67.6091C51.3676 67.9411 52.0242 68.1213 52.6945 68.1333C53.5985 68.0874 54.48 67.8352 55.2715 67.3961C56.063 66.957 56.7436 66.3426 57.2612 65.6C57.9965 64.333 59.0517 63.2813 60.3211 62.5501C61.5904 61.8189 63.0296 61.4338 64.4945 61.4333C65.9152 61.4484 67.3094 61.8194 68.5497 62.5124C69.79 63.2053 70.8368 64.1981 71.5945 65.4C71.8612 65.7333 73.9278 68.3 75.8278 68.1C76.216 68.0659 76.6063 68.0659 76.9945 68.1C77.1437 68.097 77.2896 68.0555 77.4181 67.9796C77.5465 67.9037 77.6532 67.7959 77.7278 67.6666C79.2381 64.8833 80.0287 61.7666 80.0278 58.6C80.0278 57.9369 79.7644 57.3011 79.2956 56.8322C78.8267 56.3634 78.1909 56.1 77.5278 56.1ZM77.5278 3.33331C76.8675 3.34195 76.2366 3.60811 75.7696 4.07509C75.3026 4.54208 75.0365 5.17296 75.0278 5.83331V11.2666C75.0291 11.4083 74.9927 11.5477 74.9224 11.6707C74.8522 11.7937 74.7505 11.8958 74.6278 11.9666C74.5011 12.0398 74.3574 12.0783 74.2112 12.0783C74.0649 12.0783 73.9212 12.0398 73.7945 11.9666C71.8765 10.8562 69.7363 10.1845 67.5278 9.99998C66.9782 9.99097 66.4323 10.0926 65.9227 10.2988C65.4131 10.505 64.9502 10.8116 64.5615 11.2003C64.1727 11.589 63.8662 12.0519 63.66 12.5615C63.4538 13.0711 63.3521 13.617 63.3612 14.1666V21.6666C63.3612 21.8877 63.4489 22.0996 63.6052 22.2559C63.7615 22.4122 63.9735 22.5 64.1945 22.5H70.0278C70.6909 22.5 71.3267 22.7634 71.7956 23.2322C72.2644 23.7011 72.5278 24.3369 72.5278 25C72.5278 25.663 72.2644 26.2989 71.7956 26.7677C71.3267 27.2366 70.6909 27.5 70.0278 27.5H64.1945C63.9735 27.5 63.7615 27.5878 63.6052 27.7441C63.4489 27.9003 63.3612 28.1123 63.3612 28.3333V48.6C63.3698 49.2603 63.636 49.8912 64.1029 50.3582C64.5699 50.8252 65.2008 51.0913 65.8612 51.1H77.5278C78.1882 51.0913 78.8191 50.8252 79.286 50.3582C79.753 49.8912 80.0192 49.2603 80.0278 48.6V5.83331C80.0192 5.17296 79.753 4.54208 79.286 4.07509C78.8191 3.60811 78.1882 3.34195 77.5278 3.33331Z" fill="#2CB4D7"/>
<path d="M76.2614 73.1333C70.8281 73.8333 67.1281 68.1333 67.0947 68.0666C66.7996 67.5692 66.3801 67.1572 65.8775 66.871C65.3749 66.5848 64.8064 66.4343 64.2281 66.4343C63.6497 66.4343 63.0812 66.5848 62.5786 66.871C62.076 67.1572 61.6565 67.5692 61.3614 68.0666C60.4345 69.6168 59.1348 70.9107 57.5804 71.8305C56.026 72.7504 54.2663 73.2669 52.4614 73.3333C50.8538 73.2908 49.2859 72.8245 47.9163 71.9817C46.5466 71.1388 45.4238 69.9493 44.6614 68.5333C44.4099 68.0146 44.0282 67.5699 43.5535 67.2428C43.0789 66.9156 42.5275 66.7171 41.9532 66.6668C41.3789 66.6164 40.8014 66.7158 40.277 66.9553C39.7526 67.1948 39.2993 67.5663 38.9614 68.0333C37.7469 69.5551 36.2325 70.8109 34.5122 71.7226C32.7919 72.6344 30.9025 73.1826 28.9614 73.3333C27.1626 73.2216 25.4158 72.6863 23.8633 71.7711C22.3108 70.8558 20.9966 69.5865 20.0281 68.0666C19.7458 67.6087 19.3569 67.2259 18.8946 66.9509C18.4323 66.6759 17.9103 66.5169 17.3732 66.4874C16.836 66.458 16.2998 66.5589 15.8102 66.7817C15.3205 67.0044 14.8921 67.3424 14.5614 67.7666C14.5614 67.7666 9.36139 74 3.79473 73.3333C2.91067 73.2184 2.01717 73.4594 1.31079 74.0032C0.604398 74.5471 0.142989 75.3493 0.0280617 76.2333C-0.0868654 77.1174 0.154104 78.0109 0.697959 78.7173C1.24181 79.4236 2.04401 79.8851 2.92806 80C3.53871 80.0336 4.15075 80.0336 4.76139 80C9.06207 79.7964 13.1602 78.1124 16.3614 75.2333C16.5081 75.1021 16.6979 75.0296 16.8947 75.0296C17.0915 75.0296 17.2814 75.1021 17.4281 75.2333C20.5095 78.1953 24.5885 79.8958 28.8614 80C33.2035 79.9325 37.3916 78.3797 40.7281 75.6C40.8801 75.4664 41.0756 75.3927 41.2781 75.3927C41.4805 75.3927 41.676 75.4664 41.8281 75.6C43.2214 77.0002 44.8786 78.1101 46.7039 78.8654C48.5291 79.6206 50.4861 80.0063 52.4614 80C56.6229 79.9949 60.6357 78.4516 63.7281 75.6666C63.8766 75.526 64.0735 75.4476 64.2781 75.4476C64.4827 75.4476 64.6795 75.526 64.8281 75.6666C66.4375 77.2364 68.3766 78.4279 70.5042 79.1544C72.6318 79.8809 74.8946 80.1242 77.1281 79.8666C77.5658 79.8097 77.988 79.6672 78.3707 79.4471C78.7533 79.227 79.0889 78.9337 79.3582 78.5839C79.6274 78.2342 79.8252 77.8348 79.9402 77.4086C80.0551 76.9824 80.085 76.5377 80.0281 76.1C79.9712 75.6622 79.8286 75.24 79.6085 74.8574C79.3884 74.4747 79.0951 74.1392 78.7453 73.8699C78.3956 73.6006 77.9962 73.4028 77.57 73.2879C77.1438 73.1729 76.6991 73.1431 76.2614 73.2V73.1333ZM38.4281 35H55.0947C55.0947 35 58.4281 35 58.4281 38.3333V49.4333C58.4281 49.4333 58.4281 52.7666 55.0947 52.7666H38.4281C38.4281 52.7666 35.0947 52.7666 35.0947 49.4333V38.3333C35.0947 38.3333 35.0947 35 38.4281 35ZM14.4614 35.8666C15.292 35.8554 16.0884 35.5344 16.6947 34.9666C17.3382 34.3644 17.717 33.5318 17.7482 32.6511C17.7795 31.7703 17.4606 30.913 16.8614 30.2666C16.3364 29.7187 16.0387 28.9921 16.0281 28.2333C16.0195 27.7378 16.1326 27.2477 16.3573 26.806C16.5819 26.3642 16.9115 25.9842 17.317 25.6993C17.7225 25.4144 18.1916 25.2331 18.6834 25.1714C19.1751 25.1097 19.6745 25.1695 20.1378 25.3454C20.6011 25.5214 21.0143 25.8082 21.3411 26.1807C21.668 26.5533 21.8986 27.0002 22.0127 27.4825C22.1269 27.9648 22.1211 28.4677 21.9959 28.9472C21.8708 29.4268 21.63 29.8683 21.2947 30.2333C20.983 30.5578 20.7402 30.9421 20.581 31.363C20.4218 31.7838 20.3495 32.2326 20.3683 32.6822C20.3872 33.1317 20.4969 33.5728 20.6908 33.9789C20.8847 34.3849 21.1588 34.7475 21.4966 35.0448C21.8344 35.342 22.2289 35.5678 22.6563 35.7085C23.0837 35.8493 23.5352 35.902 23.9835 35.8635C24.4319 35.8251 24.8678 35.6963 25.265 35.4848C25.6622 35.2734 26.0125 34.9838 26.2947 34.6333C27.3717 33.4233 28.1261 31.9613 28.4883 30.3824C28.8504 28.8036 28.8086 27.1589 28.3666 25.6005C27.9247 24.0421 27.0969 22.6203 25.9599 21.4666C24.8228 20.3129 23.4132 19.4645 21.8614 19V12.8333C21.8672 12.6764 21.9172 12.5243 22.0056 12.3945C22.0941 12.2648 22.2174 12.1627 22.3614 12.1C22.497 12.0176 22.6527 11.974 22.8114 11.974C22.9701 11.974 23.1258 12.0176 23.2614 12.1L43.3614 29.4C43.8234 29.777 44.3985 29.9882 44.9947 30H56.6947C57.227 30.0003 57.7451 29.8284 58.1717 29.51C58.5982 29.1916 58.9103 28.7437 59.0614 28.2333C59.2197 27.7245 59.2113 27.1784 59.0374 26.6747C58.8635 26.171 58.5332 25.7361 58.0947 25.4333L22.9614 1.06665C22.2848 0.580657 21.4961 0.273929 20.6689 0.175063C19.8417 0.0761972 19.003 0.188413 18.2309 0.501248C17.4588 0.814083 16.7785 1.31735 16.2534 1.96411C15.7283 2.61087 15.3756 3.38007 15.2281 4.19998V19.4C13.818 20.0187 12.5768 20.9664 11.6085 22.1637C10.6402 23.361 9.97299 24.7729 9.66284 26.2812C9.3527 27.7895 9.40864 29.3501 9.82597 30.8323C10.2433 32.3145 11.0099 33.6751 12.0614 34.8C12.3684 35.131 12.7394 35.3963 13.1519 35.5796C13.5645 35.763 14.01 35.8606 14.4614 35.8666Z" fill="#2CB4D7"/>
</svg>
