<svg width="80" height="80" viewBox="0 0 80 80" fill="none" xmlns="http://www.w3.org/2000/svg">
<path d="M36.6667 41.6667H27.5C27.279 41.6667 27.067 41.7545 26.9107 41.9107C26.7545 42.067 26.6667 42.279 26.6667 42.5V55C26.6667 55.3095 26.5805 55.6129 26.4178 55.8762C26.255 56.1395 26.0222 56.3523 25.7454 56.4907C25.4685 56.6291 25.1586 56.6877 24.8503 56.6599C24.5421 56.6321 24.2476 56.519 24 56.3333L20.6667 53.7C20.5187 53.6011 20.3447 53.5483 20.1667 53.5483C19.9887 53.5483 19.8147 53.6011 19.6667 53.7L16.3333 56.3333C16.0857 56.519 15.7913 56.6321 15.483 56.6599C15.1747 56.6877 14.8648 56.6291 14.588 56.4907C14.3111 56.3523 14.0783 56.1395 13.9156 55.8762C13.7529 55.6129 13.6667 55.3095 13.6667 55V42.5C13.6667 42.279 13.5789 42.067 13.4226 41.9107C13.2663 41.7545 13.0543 41.6667 12.8333 41.6667H3.33333C2.44928 41.6667 1.60143 42.0179 0.976311 42.643C0.351189 43.2681 0 44.1159 0 45L0 76.6667C0 77.5507 0.351189 78.3986 0.976311 79.0237C1.60143 79.6488 2.44928 80 3.33333 80H36.6667C37.5507 80 38.3986 79.6488 39.0237 79.0237C39.6488 78.3986 40 77.5507 40 76.6667V45C40 44.1159 39.6488 43.2681 39.0237 42.643C38.3986 42.0179 37.5507 41.6667 36.6667 41.6667ZM71 27.8667C70.8666 27.7938 70.7539 27.6883 70.6723 27.5601C70.5907 27.4318 70.5429 27.285 70.5333 27.1333C70.5363 26.9841 70.5778 26.8382 70.6537 26.7098C70.7296 26.5813 70.8374 26.4746 70.9667 26.4C73.0973 25.1466 74.8639 23.3587 76.0916 21.2131C77.3193 19.0676 77.9656 16.6387 77.9667 14.1667C77.8818 10.4361 76.3621 6.88181 73.7235 4.24321C71.0849 1.6046 67.5306 0.0848186 63.8 0C61.1702 0.0229858 58.5973 0.769076 56.3632 2.15659C54.1291 3.54411 52.3198 5.51955 51.1333 7.86667C51.0634 8.0095 50.954 8.12934 50.8182 8.21203C50.6823 8.29472 50.5257 8.33681 50.3667 8.33333H45C44.1159 8.33333 43.2681 8.68452 42.643 9.30964C42.0179 9.93476 41.6667 10.7826 41.6667 11.6667C41.6667 12.5507 42.0179 13.3986 42.643 14.0237C43.2681 14.6488 44.1159 15 45 15H48.9333C49.1323 15.0065 49.3223 15.0841 49.4691 15.2186C49.6158 15.3531 49.7096 15.5357 49.7333 15.7333C49.9871 17.8577 50.7188 19.8971 51.8734 21.6983C53.028 23.4995 54.5756 25.0158 56.4 26.1333C56.528 26.2149 56.6322 26.3287 56.7024 26.4632C56.7726 26.5978 56.8063 26.7484 56.8 26.9C56.7882 27.0511 56.7354 27.1962 56.6473 27.3195C56.5592 27.4428 56.4391 27.5398 56.3 27.6C53.4286 28.9365 50.9976 31.0635 49.2915 33.7319C47.5854 36.4003 46.6749 39.4995 46.6667 42.6667V52.6667C46.6752 53.106 46.8535 53.525 47.1643 53.8357C47.475 54.1465 47.894 54.3248 48.3333 54.3333H53.3333C53.5375 54.3409 53.7317 54.4231 53.8792 54.5644C54.0267 54.7058 54.1171 54.8964 54.1333 55.1L56.6667 78.0333C56.7152 78.443 56.911 78.8211 57.2176 79.0971C57.5243 79.373 57.9208 79.5281 58.3333 79.5333H68.3333C68.7479 79.5354 69.1484 79.3829 69.4566 79.1055C69.7648 78.8281 69.9585 78.4459 70 78.0333L72.3 55.1667C72.3168 54.9574 72.412 54.7622 72.5665 54.6201C72.7209 54.4779 72.9234 54.3993 73.1333 54.4H78.3333C78.7727 54.3915 79.1917 54.2131 79.5024 53.9024C79.8131 53.5917 79.9915 53.1727 80 52.7333V42.7333C80.0125 39.6672 79.1789 36.6571 77.5911 34.0341C76.0032 31.4112 73.7225 29.2771 71 27.8667ZM70.7333 15C70.8427 14.9718 70.9573 14.9718 71.0667 15C71.0914 15.058 71.1042 15.1203 71.1042 15.1833C71.1042 15.2464 71.0914 15.3087 71.0667 15.3667C70.712 16.9686 69.8396 18.4091 68.5844 19.4655C67.3291 20.5219 65.7607 21.1355 64.1218 21.2114C62.4829 21.2873 60.8646 20.8212 59.5171 19.8853C58.1695 18.9493 57.1678 17.5956 56.6667 16.0333C56.6111 15.925 56.5821 15.8051 56.5821 15.6833C56.5821 15.5616 56.6111 15.4416 56.6667 15.3333C56.7391 15.2324 56.834 15.1497 56.944 15.0919C57.0539 15.034 57.1758 15.0026 57.3 15H70.7333Z" fill="#2CB4D7"/>
</svg>
