<svg width="80" height="80" viewBox="0 0 80 80" fill="none" xmlns="http://www.w3.org/2000/svg">
<path d="M32.6333 67.9333L22.6333 61.2667C22.258 61.0216 21.8238 60.882 21.376 60.8623C20.9282 60.8427 20.4834 60.9438 20.0881 61.1551C19.6928 61.3664 19.3616 61.6801 19.1291 62.0633C18.8966 62.4465 18.7714 62.8851 18.7667 63.3333V63.9C18.7646 64.0469 18.7237 64.1907 18.6482 64.3167C18.5726 64.4427 18.4651 64.5465 18.3365 64.6176C18.2079 64.6887 18.0628 64.7245 17.9159 64.7214C17.769 64.7183 17.6255 64.6764 17.5 64.6C15.5943 63.4011 14.0231 61.7391 12.9332 59.769C11.8432 57.7989 11.2699 55.5848 11.2667 53.3333C11.2667 52.4493 10.9155 51.6014 10.2904 50.9763C9.66524 50.3512 8.81739 50 7.93333 50C7.04928 50 6.20143 50.3512 5.57631 50.9763C4.95119 51.6014 4.6 52.4493 4.6 53.3333C4.60314 57.5148 5.91681 61.5902 8.3563 64.9863C10.7958 68.3825 14.2384 70.9286 18.2 72.2667C18.3642 72.3272 18.5062 72.436 18.6073 72.5788C18.7085 72.7216 18.764 72.8917 18.7667 73.0667V76.6667C18.7753 77.327 19.0415 77.9579 19.5084 78.4249C19.9754 78.8919 20.6063 79.158 21.2667 79.1667C21.7671 79.1717 22.2566 79.0202 22.6667 78.7333L32.6667 72.0667C33.0035 71.8374 33.2792 71.5292 33.4698 71.169C33.6603 70.8088 33.7599 70.4075 33.7599 70C33.7599 69.5925 33.6603 69.1912 33.4698 68.831C33.2792 68.4708 33.0035 68.1626 32.6667 67.9333H32.6333ZM50 12.1L60 18.7667C60.4072 19.0297 60.882 19.1686 61.3667 19.1667C61.7847 19.1621 62.1957 19.0593 62.5667 18.8667C62.9426 18.638 63.2515 18.3142 63.4622 17.9279C63.6729 17.5416 63.7779 17.1065 63.7667 16.6667V16.1C63.7687 15.9531 63.8096 15.8093 63.8852 15.6833C63.9607 15.5573 64.0682 15.4534 64.1968 15.3824C64.3255 15.3113 64.4706 15.2755 64.6175 15.2786C64.7644 15.2817 64.9078 15.3236 65.0333 15.4C66.9391 16.5989 68.5102 18.2609 69.6002 20.231C70.6901 22.2011 71.2634 24.4151 71.2667 26.6667C71.2667 27.5507 71.6179 28.3986 72.243 29.0237C72.8681 29.6488 73.7159 30 74.6 30C75.4841 30 76.3319 29.6488 76.957 29.0237C77.5821 28.3986 77.9333 27.5507 77.9333 26.6667C77.9302 22.4852 76.6165 18.4098 74.177 15.0137C71.7376 11.6175 68.295 9.0714 64.3333 7.73332C64.1692 7.67277 64.0272 7.56394 63.926 7.42115C63.8249 7.27835 63.7693 7.10829 63.7667 6.93332V3.33332C63.7679 2.88359 63.6478 2.44186 63.419 2.05468C63.1902 1.66749 62.8612 1.34919 62.4667 1.13332C62.08 0.897786 61.6361 0.773193 61.1833 0.773193C60.7306 0.773193 60.2866 0.897786 59.9 1.13332L49.9 7.79999C49.5515 8.02025 49.2646 8.32545 49.0664 8.68694C48.8682 9.04844 48.765 9.45438 48.7667 9.86666C48.7597 10.3141 48.8699 10.7557 49.0862 11.1474C49.3025 11.5392 49.6176 11.8676 50 12.1ZM21.2 36.6667C21.2 37.1044 21.2862 37.5378 21.4537 37.9423C21.6213 38.3467 21.8668 38.7141 22.1763 39.0237C22.4858 39.3332 22.8533 39.5787 23.2577 39.7463C23.6621 39.9138 24.0956 40 24.5333 40C24.9711 40 25.4045 39.9138 25.8089 39.7463C26.2134 39.5787 26.5808 39.3332 26.8904 39.0237C27.1999 38.7141 27.4454 38.3467 27.6129 37.9423C27.7804 37.5378 27.8667 37.1044 27.8667 36.6667C27.8667 35.7826 27.5155 34.9348 26.8904 34.3096C26.2652 33.6845 25.4174 33.3333 24.5333 33.3333C23.6493 33.3333 22.8014 33.6845 22.1763 34.3096C21.5512 34.9348 21.2 35.7826 21.2 36.6667ZM7.86667 36.6667C7.86667 37.5507 8.21786 38.3986 8.84298 39.0237C9.4681 39.6488 10.3159 40 11.2 40C12.0841 40 12.9319 39.6488 13.557 39.0237C14.1821 38.3986 14.5333 37.5507 14.5333 36.6667C14.5333 35.7826 14.1821 34.9348 13.557 34.3096C12.9319 33.6845 12.0841 33.3333 11.2 33.3333C10.3159 33.3333 9.4681 33.6845 8.84298 34.3096C8.21786 34.9348 7.86667 35.7826 7.86667 36.6667ZM35.3667 0.966656C34.739 0.754975 34.0529 0.801068 33.4592 1.09481C32.8655 1.38855 32.4126 1.90593 32.2 2.53332L30.1667 8.59999C30.1122 8.76152 30.0095 8.90246 29.8724 9.00379C29.7353 9.10511 29.5704 9.16196 29.4 9.16666H4.56667C4.1781 9.16403 3.7944 9.25323 3.44685 9.42701C3.09929 9.60079 2.79771 9.85422 2.56667 10.1667C2.33098 10.4822 2.1721 10.8484 2.10267 11.236C2.03323 11.6237 2.05515 12.0223 2.16667 12.4L7.16667 29.0667C7.32869 29.577 7.64823 30.0228 8.07942 30.3402C8.5106 30.6576 9.03126 30.8302 9.56667 30.8333H26.2333C26.756 30.8329 27.2654 30.6687 27.69 30.3638C28.1145 30.0588 28.4327 29.6285 28.6 29.1333L36.9333 4.13332C37.145 3.50563 37.0989 2.81958 36.8052 2.22585C36.5114 1.63211 35.9941 1.17923 35.3667 0.966656ZM71.2333 32.5H54.5667C53.0223 32.5087 51.5436 33.1261 50.4515 34.2182C49.3595 35.3103 48.7421 36.7889 48.7333 38.3333V73.3333C48.7066 74.0732 48.826 74.8111 49.0846 75.5048C49.3433 76.1986 49.7362 76.8345 50.2408 77.3763C50.7454 77.918 51.3519 78.355 52.0255 78.6622C52.6992 78.9695 53.4267 79.1409 54.1667 79.1667H71.6667C73.1552 79.1059 74.559 78.4581 75.571 77.3649C76.583 76.2716 77.1208 74.8221 77.0667 73.3333V38.3333C77.0579 36.7889 76.4405 35.3103 75.3485 34.2182C74.2564 33.1261 72.7777 32.5087 71.2333 32.5ZM62.9 75.8333C62.4056 75.8333 61.9222 75.6867 61.5111 75.412C61.1 75.1373 60.7795 74.7468 60.5903 74.29C60.4011 73.8332 60.3516 73.3306 60.448 72.8456C60.5445 72.3606 60.7826 71.9152 61.1322 71.5656C61.4819 71.2159 61.9273 70.9778 62.4123 70.8814C62.8972 70.7849 63.3999 70.8344 63.8567 71.0236C64.3135 71.2128 64.704 71.5333 64.9787 71.9444C65.2534 72.3555 65.4 72.8389 65.4 73.3333C65.3914 73.9937 65.1252 74.6246 64.6582 75.0915C64.1912 75.5585 63.5604 75.8247 62.9 75.8333ZM54.5667 37.5H71.2333C71.4544 37.5 71.6663 37.5878 71.8226 37.7441C71.9789 37.9003 72.0667 38.1123 72.0667 38.3333V66.6667C72.0667 66.8877 71.9789 67.0996 71.8226 67.2559C71.6663 67.4122 71.4544 67.5 71.2333 67.5H54.5667C54.3457 67.5 54.1337 67.4122 53.9774 67.2559C53.8211 67.0996 53.7333 66.8877 53.7333 66.6667V38.3333C53.7333 38.1123 53.8211 37.9003 53.9774 37.7441C54.1337 37.5878 54.3457 37.5 54.5667 37.5Z" fill="#2CB4D7"/>
</svg>
