<svg width="51" height="44" viewBox="0 0 51 44" fill="none" xmlns="http://www.w3.org/2000/svg">
<path d="M11.0159 37.0232C10.6017 37.0234 10.2045 37.1882 9.91147 37.4814C9.6184 37.7746 9.45339 38.1724 9.45264 38.5873C9.4532 39.0025 9.61808 39.4006 9.91114 39.6942C10.2042 39.9878 10.6015 40.153 11.0159 40.1536C11.4203 40.1386 11.8031 39.9672 12.0839 39.6753C12.3647 39.3834 12.5216 38.9938 12.5216 38.5884C12.5216 38.183 12.3647 37.7934 12.0839 37.5015C11.8031 37.2096 11.4203 37.0381 11.0159 37.0232ZM11.0159 39.0451C10.9547 39.0475 10.8935 39.0376 10.8362 39.0158C10.7788 38.994 10.7265 38.9609 10.6822 38.9183C10.638 38.8758 10.6028 38.8247 10.5787 38.7682C10.5546 38.7117 10.5422 38.6509 10.5422 38.5895C10.5421 38.528 10.5545 38.4672 10.5784 38.4107C10.6024 38.3541 10.6375 38.303 10.6817 38.2604C10.7259 38.2178 10.7782 38.1845 10.8355 38.1627C10.8928 38.1408 10.9539 38.1308 11.0152 38.1331C11.1328 38.1378 11.244 38.1879 11.3256 38.2729C11.4072 38.3579 11.4527 38.4712 11.4527 38.5891C11.4527 38.707 11.4072 38.8203 11.3256 38.9053C11.244 38.9903 11.1335 39.0404 11.0159 39.0451ZM38.9753 37.0232C38.5612 37.0236 38.1642 37.1884 37.8713 37.4816C37.5783 37.7749 37.4134 38.1725 37.4127 38.5873C37.4132 39.0024 37.578 39.4004 37.8709 39.694C38.1638 39.9876 38.5609 40.1528 38.9753 40.1536C39.8366 40.1536 40.5371 39.451 40.5371 38.5873C40.5366 38.1725 40.3718 37.7749 40.079 37.4817C39.7862 37.1885 39.3892 37.0236 38.9753 37.0232ZM38.9753 39.0451C38.9129 39.0494 38.8503 39.0408 38.7913 39.0199C38.7324 38.9989 38.6784 38.9661 38.6327 38.9234C38.5869 38.8807 38.5505 38.829 38.5255 38.7715C38.5006 38.7141 38.4877 38.6521 38.4876 38.5895C38.4876 38.5268 38.5004 38.4648 38.5252 38.4074C38.5501 38.3499 38.5865 38.2981 38.6322 38.2554C38.6778 38.2126 38.7318 38.1796 38.7907 38.1586C38.8496 38.1376 38.9122 38.1289 38.9745 38.1331C39.0899 38.1409 39.1979 38.1923 39.2769 38.2769C39.3559 38.3615 39.3999 38.473 39.3999 38.5888C39.4 38.7046 39.3562 38.8161 39.2774 38.9008C39.1986 38.9855 39.0906 39.0371 38.9753 39.0451Z" fill="#2CB4D7"/>
<path d="M50.7059 22.9965L43.6269 14.684C43.5748 14.623 43.5102 14.574 43.4374 14.5404C43.3647 14.5069 43.2855 14.4895 43.2054 14.4896H33.4835V0.595495C33.4836 0.52259 33.4694 0.450382 33.4415 0.383008C33.4137 0.315634 33.3729 0.254418 33.3215 0.202866C33.27 0.151314 33.2089 0.110438 33.1417 0.0825815C33.0744 0.0547249 33.0024 0.0404344 32.9296 0.0405278H0.715318C0.64261 0.0405277 0.570615 0.0548875 0.503451 0.0827859C0.436286 0.110684 0.375269 0.151574 0.32389 0.203117C0.272511 0.25466 0.231776 0.315844 0.204017 0.383172C0.176257 0.450499 0.162017 0.522649 0.16211 0.595495V35.3363C0.16211 35.4832 0.220193 35.6245 0.32361 35.7281L2.47198 37.8805C2.57566 37.9845 2.7163 38.0429 2.86298 38.043H5.68215C5.36198 41.2146 7.8539 43.9589 11.0159 43.9589C14.1843 43.9589 16.6691 41.2089 16.3489 38.043H33.6429C33.322 41.2146 35.8132 43.9589 38.9759 43.9589C41.7448 43.9589 44.0299 41.8448 44.3076 39.143H48.1829C48.3245 39.143 48.4605 39.0884 48.5632 38.9912L50.6663 36.9991C50.7209 36.9473 50.7643 36.8849 50.7941 36.8157C50.8238 36.7466 50.8391 36.672 50.8391 36.5967V23.3556C50.839 23.2237 50.7921 23.0961 50.7066 22.9957L50.7059 22.9965ZM49.732 23.5607V26.1283H37.2171V15.5988H42.9504L49.732 23.5607ZM1.26782 1.14975H32.3764V27.0977H1.26782V1.14975ZM11.0145 42.8504C9.88665 42.8491 8.8054 42.3996 8.00798 41.6005C7.21055 40.8014 6.76207 39.718 6.76094 38.5881C6.76226 37.4581 7.21091 36.3748 8.00848 35.5759C8.80604 34.7769 9.88736 34.3276 11.0152 34.3265C12.1429 34.3278 13.224 34.7772 14.0215 35.5761C14.8189 36.375 15.2674 37.4582 15.2687 38.5881C15.2676 39.718 14.8191 40.8014 14.0217 41.6005C13.2243 42.3996 12.143 42.8491 11.0152 42.8504H11.0145ZM38.9752 42.8504C37.8473 42.8491 36.766 42.3996 35.9685 41.6005C35.1709 40.8015 34.7223 39.7181 34.721 38.5881C34.7223 37.4581 35.171 36.3748 35.9685 35.5759C36.7661 34.7769 37.8474 34.3276 38.9752 34.3265C40.1029 34.3278 41.1841 34.7772 41.9815 35.5761C42.7789 36.375 43.2275 37.4582 43.2288 38.5881C43.2276 39.718 42.7792 40.8014 41.9817 41.6005C41.1843 42.3996 40.1031 42.8491 38.9752 42.8504ZM47.9619 38.0338H44.3069C44.0292 35.3321 41.7441 33.2172 38.9752 33.2172C36.5952 33.2172 34.5736 34.7799 33.8752 36.9338H16.1145C15.4161 34.7799 13.3945 33.2172 11.0145 33.2172C8.63519 33.2172 6.61361 34.7799 5.9159 36.9338H3.09178L1.26782 35.1064V28.2062H32.9303C33.0029 28.2062 33.0748 28.1919 33.1419 28.164C33.209 28.1361 33.2699 28.0953 33.3212 28.0438C33.3726 27.9923 33.4132 27.9312 33.441 27.864C33.4687 27.7968 33.4829 27.7247 33.4828 27.6519V15.5981H36.1107V26.6839C36.1107 26.9898 36.3579 27.2375 36.6632 27.2375H49.732V36.3583L47.9619 38.0345V38.0338Z" fill="#2CB4D7"/>
<path d="M16.823 24.6046C22.5902 24.6046 27.2829 19.9022 27.2829 14.1233C27.2829 8.34443 22.5902 3.64282 16.823 3.64282C11.0557 3.64282 6.3623 8.34443 6.3623 14.1233C6.3623 19.9022 11.055 24.6046 16.823 24.6046ZM16.823 4.75205C21.9796 4.75205 26.1765 8.95618 26.1765 14.1233C26.1765 19.2912 21.9804 23.4953 16.8223 23.4953C11.6649 23.4953 7.46872 19.2912 7.46872 14.1233C7.46872 8.95618 11.6656 4.75205 16.823 4.75205Z" fill="#2CB4D7"/>
<path d="M14.7631 17.2786C14.9792 17.4951 15.3298 17.4951 15.5458 17.2786L21.8266 10.9859C21.878 10.9344 21.9188 10.8733 21.9466 10.806C21.9744 10.7387 21.9887 10.6666 21.9887 10.5938C21.9887 10.521 21.9744 10.4489 21.9466 10.3816C21.9188 10.3143 21.878 10.2532 21.8266 10.2017C21.7752 10.1502 21.7142 10.1094 21.6471 10.0815C21.5799 10.0536 21.508 10.0393 21.4353 10.0393C21.3626 10.0393 21.2906 10.0536 21.2235 10.0815C21.1563 10.1094 21.0953 10.1502 21.0439 10.2017L15.1541 16.102L11.9766 12.9184C11.8728 12.8144 11.732 12.756 11.5852 12.756C11.4384 12.756 11.2976 12.8144 11.1938 12.9184C11.09 13.0224 11.0317 13.1634 11.0317 13.3105C11.0317 13.4575 11.09 13.5986 11.1938 13.7026L14.7631 17.2786Z" fill="#2CB4D7"/>
</svg>
