<svg width="47" height="47" viewBox="0 0 47 47" fill="none" xmlns="http://www.w3.org/2000/svg">
<g clip-path="url(#clip0_239_2848)">
<path d="M5.10089 26.7813C5.03 26.7813 4.95982 26.7954 4.89436 26.8226C4.8289 26.8498 4.76945 26.8897 4.71939 26.9398C4.66932 26.99 4.62964 27.0496 4.60259 27.1151C4.57555 27.1806 4.56168 27.2509 4.56177 27.3217V34.2377C4.56177 34.3085 4.57573 34.3787 4.60286 34.4442C4.62999 34.5097 4.66975 34.5692 4.71987 34.6194C4.77 34.6695 4.82951 34.7092 4.895 34.7364C4.96049 34.7635 5.03069 34.7775 5.10158 34.7775C5.17246 34.7775 5.24266 34.7635 5.30815 34.7364C5.37364 34.7092 5.43315 34.6695 5.48328 34.6194C5.5334 34.5692 5.57317 34.5097 5.60029 34.4442C5.62742 34.3787 5.64138 34.3085 5.64138 34.2377V27.3217C5.64148 27.2508 5.62758 27.1805 5.60049 27.115C5.57341 27.0494 5.53366 26.9898 5.48352 26.9396C5.43339 26.8894 5.37385 26.8496 5.30831 26.8224C5.24277 26.7952 5.17183 26.7812 5.10089 26.7813ZM9.071 26.7813C9.00006 26.7812 8.9298 26.7952 8.86427 26.8224C8.79873 26.8496 8.73919 26.8894 8.68906 26.9396C8.63892 26.9898 8.59917 27.0494 8.57209 27.115C8.545 27.1805 8.5311 27.2508 8.53119 27.3217V34.2377C8.53119 34.3808 8.58807 34.5181 8.6893 34.6194C8.79053 34.7206 8.92784 34.7775 9.071 34.7775C9.21417 34.7775 9.35147 34.7206 9.4527 34.6194C9.55394 34.5181 9.61081 34.3808 9.61081 34.2377V27.3217C9.6109 27.2508 9.59701 27.1805 9.56992 27.115C9.54283 27.0494 9.50308 26.9898 9.45295 26.9396C9.40281 26.8894 9.34328 26.8496 9.27774 26.8224C9.2122 26.7952 9.14195 26.7812 9.071 26.7813Z" fill="#2CB4D7"/>
<path d="M37.8087 22.1945C37.808 7.71232 37.8163 8.65647 37.7928 8.55555C37.7791 8.49684 37.7557 8.44079 37.7237 8.38967L32.6643 0.413495C32.6156 0.336605 32.5482 0.273284 32.4685 0.229417C32.3887 0.185551 32.2991 0.162566 32.2081 0.162598H5.89919C5.80816 0.162566 5.71861 0.185551 5.63885 0.229417C5.5591 0.273284 5.49173 0.336605 5.44301 0.413495L0.382907 8.38967C0.329251 8.47686 0.30012 8.57691 0.298584 8.67927V37.2214C0.298584 37.52 0.540495 37.7612 0.838392 37.7612H22.0022C23.5297 42.9996 28.3749 46.8377 34.0999 46.8377C41.0476 46.8377 46.7 41.1853 46.7 34.2376C46.7 28.5796 42.9525 23.7815 37.8087 22.1945ZM36.2861 8.13946H23.4668L22.3416 1.24291H31.9109L36.2861 8.13946ZM15.6455 9.21908H22.4618V14.9213H15.6455V9.21908ZM21.2474 1.24291L22.3727 8.13946H15.7346L16.8599 1.24291H21.2474ZM6.19708 1.24291H15.7657L14.6405 8.13946H1.82125L6.19708 1.24291ZM1.37958 36.6809V9.21908H14.5652V15.4618C14.5652 15.7597 14.8071 16.0009 15.1057 16.0009H23.0017C23.0726 16.0011 23.1428 15.9873 23.2084 15.9603C23.274 15.9333 23.3336 15.8936 23.3838 15.8435C23.434 15.7934 23.4738 15.7339 23.501 15.6684C23.5282 15.6029 23.5422 15.5327 23.5422 15.4618V9.21908H36.7284V21.9139C28.8753 20.2413 21.5004 26.2593 21.5004 34.2376C21.5004 35.0739 21.5834 35.8902 21.7396 36.6816L1.37958 36.6809ZM34.1006 45.7567C27.7487 45.7567 22.5807 40.5888 22.5807 34.2369C22.5807 27.885 27.7487 22.7171 34.1006 22.7171C40.4525 22.7171 45.6204 27.885 45.6204 34.2369C45.6204 40.5888 40.4525 45.7567 34.1006 45.7567Z" fill="#2CB4D7"/>
<path d="M32.3796 32.5162C31.9237 32.973 31.6677 33.592 31.6677 34.2373C31.6677 34.8826 31.9237 35.5015 32.3796 35.9583C32.8022 36.383 33.3666 36.6367 33.9648 36.671C34.5629 36.7052 35.1526 36.5174 35.6209 36.1437C36.0891 35.77 36.403 35.2366 36.5023 34.6458C36.6016 34.0549 36.4793 33.4483 36.1589 32.942L39.9922 29.1094C40.0423 29.0593 40.0821 28.9997 40.1092 28.9342C40.1364 28.8687 40.1504 28.7985 40.1504 28.7276C40.1504 28.6566 40.1364 28.5864 40.1092 28.5209C40.0821 28.4554 40.0423 28.3958 39.9922 28.3457C39.942 28.2955 39.8825 28.2558 39.817 28.2286C39.7515 28.2015 39.6812 28.1875 39.6103 28.1875C39.5394 28.1875 39.4692 28.2015 39.4036 28.2286C39.3381 28.2558 39.2786 28.2955 39.2284 28.3457L35.3959 32.1789C34.9291 31.8856 34.3766 31.7593 33.8288 31.8205C33.2809 31.8818 32.77 32.1271 32.3796 32.5162ZM35.0579 35.1945C34.9322 35.3203 34.7829 35.42 34.6187 35.488C34.4544 35.556 34.2784 35.5911 34.1006 35.5911C33.9228 35.5911 33.7468 35.556 33.5825 35.488C33.4183 35.42 33.269 35.3203 33.1433 35.1945C33.0176 35.0688 32.9179 34.9196 32.8498 34.7553C32.7818 34.5911 32.7468 34.415 32.7468 34.2373C32.7468 34.0595 32.7818 33.8834 32.8498 33.7192C32.9179 33.5549 33.0176 33.4057 33.1433 33.28C33.3974 33.0265 33.7417 32.8841 34.1006 32.8841C34.4595 32.8841 34.8038 33.0265 35.0579 33.28C35.3114 33.5341 35.4537 33.8783 35.4537 34.2373C35.4537 34.5962 35.3114 34.9405 35.0579 35.1945Z" fill="#2CB4D7"/>
<path d="M42.6524 33.6974C42.5093 33.6974 42.372 33.7543 42.2707 33.8555C42.1695 33.9568 42.1126 34.0941 42.1126 34.2372C42.1126 38.6552 38.5185 42.2494 34.1005 42.2494C29.6825 42.2494 26.0884 38.6552 26.0884 34.2372C26.0884 29.8192 29.6825 26.2251 34.1005 26.2251C34.2437 26.2251 34.381 26.1683 34.4822 26.067C34.5835 25.9658 34.6403 25.8285 34.6403 25.6853C34.6403 25.5421 34.5835 25.4048 34.4822 25.3036C34.381 25.2024 34.2437 25.1455 34.1005 25.1455C29.0874 25.1455 25.0088 29.2234 25.0088 34.2372C25.0088 39.2503 29.0867 43.329 34.1005 43.329C39.1136 43.329 43.1923 39.251 43.1923 34.2372C43.1923 34.0941 43.1354 33.9568 43.0342 33.8555C42.9329 33.7543 42.7956 33.6974 42.6524 33.6974Z" fill="#2CB4D7"/>
</g>
<defs>
<clipPath id="clip0_239_2848">
<rect width="47" height="47" fill="white"/>
</clipPath>
</defs>
</svg>
