<svg width="44" height="44" viewBox="0 0 44 44" fill="none" xmlns="http://www.w3.org/2000/svg">
<g clip-path="url(#clip0_281_3663)">
<path d="M42.9656 21.5356H39.7679C39.5241 12.103 31.8972 4.47553 22.4652 4.23293V1.03401C22.4652 0.910772 22.4162 0.79258 22.3291 0.705436C22.2419 0.618293 22.1237 0.569336 22.0005 0.569336C21.8773 0.569336 21.7591 0.618293 21.6719 0.705436C21.5848 0.79258 21.5358 0.910772 21.5358 1.03401V4.23293C12.1038 4.47612 4.47631 12.1036 4.23312 21.5356H1.0342C0.911042 21.5356 0.792925 21.5846 0.705837 21.6716C0.61875 21.7587 0.569824 21.8769 0.569824 22C0.569824 22.1232 0.61875 22.2413 0.705837 22.3284C0.792925 22.4155 0.911042 22.4644 1.0342 22.4644H4.23312C4.47631 31.8964 12.1038 39.5239 21.5358 39.7671V42.966C21.5358 43.0893 21.5848 43.2074 21.6719 43.2946C21.7591 43.3817 21.8773 43.4307 22.0005 43.4307C22.1237 43.4307 22.2419 43.3817 22.3291 43.2946C22.4162 43.2074 22.4652 43.0893 22.4652 42.966V39.7671C31.8972 39.5239 39.5241 31.8964 39.7679 22.4644H42.9662C43.0894 22.4644 43.2075 22.4155 43.2946 22.3284C43.3817 22.2413 43.4306 22.1232 43.4306 22C43.4306 21.8769 43.3817 21.7587 43.2946 21.6716C43.2075 21.5846 43.0888 21.5356 42.9656 21.5356ZM22.4652 38.8377V35.8677C22.4652 35.7446 22.4163 35.6265 22.3292 35.5394C22.2421 35.4523 22.124 35.4034 22.0008 35.4034C21.8776 35.4034 21.7595 35.4523 21.6724 35.5394C21.5853 35.6265 21.5364 35.7446 21.5364 35.8677V38.8377C12.6163 38.5951 5.40507 31.3845 5.16247 22.4638H8.13247C8.19346 22.4638 8.25384 22.4518 8.31018 22.4284C8.36652 22.4051 8.41772 22.3709 8.46084 22.3278C8.50396 22.2847 8.53817 22.2335 8.5615 22.1771C8.58484 22.1208 8.59685 22.0604 8.59685 21.9994C8.59685 21.9384 8.58484 21.878 8.5615 21.8217C8.53817 21.7654 8.50396 21.7142 8.46084 21.6711C8.41772 21.6279 8.36652 21.5937 8.31018 21.5704C8.25384 21.5471 8.19346 21.535 8.13247 21.535H5.16247C5.40507 12.6155 12.6163 5.40488 21.5364 5.16228V8.13228C21.5364 8.25544 21.5853 8.37356 21.6724 8.46065C21.7595 8.54773 21.8776 8.59666 22.0008 8.59666C22.124 8.59666 22.2421 8.54773 22.3292 8.46065C22.4163 8.37356 22.4652 8.25544 22.4652 8.13228V5.16228C31.3853 5.40488 38.5959 12.6155 38.8385 21.5356H35.8691C35.8081 21.5356 35.7478 21.5476 35.6914 21.571C35.6351 21.5943 35.5839 21.6285 35.5408 21.6716C35.4976 21.7148 35.4634 21.766 35.4401 21.8223C35.4168 21.8786 35.4047 21.939 35.4047 22C35.4047 22.061 35.4168 22.1214 35.4401 22.1777C35.4634 22.2341 35.4976 22.2853 35.5408 22.3284C35.5839 22.3715 35.6351 22.4057 35.6914 22.429C35.7478 22.4524 35.8081 22.4644 35.8691 22.4644H38.8385C38.5953 31.3845 31.3847 38.5951 22.4652 38.8377Z" fill="#2CB4D7"/>
<path d="M32.2069 16.094C32.2001 16.0668 32.1913 16.0402 32.1807 16.0143C32.151 15.9465 32.3258 16.2361 29.4372 11.6797C29.3953 11.6136 29.3374 11.5591 29.2688 11.5213C29.2002 11.4836 29.1231 11.4638 29.0448 11.4639H14.9559C14.8776 11.4638 14.8006 11.4835 14.732 11.5211C14.6634 11.5587 14.6054 11.6131 14.5635 11.6791C11.6731 16.2397 11.8497 15.9465 11.82 16.0137C11.7957 16.0711 11.7826 16.1327 11.7814 16.1951L11.7808 31.4874C11.7808 31.7437 11.9889 31.9512 12.2451 31.9512H31.7562C31.8172 31.9514 31.8776 31.9395 31.934 31.9163C31.9904 31.893 32.0417 31.8589 32.0849 31.8158C32.1281 31.7727 32.1623 31.7215 32.1857 31.6652C32.2091 31.6088 32.2211 31.5484 32.2211 31.4874C32.2205 15.063 32.2271 16.1802 32.2069 16.094ZM12.7089 16.6648H19.4207V19.8328C19.4207 20.0891 19.6288 20.2972 19.8857 20.2972H24.115C24.238 20.2972 24.356 20.2483 24.443 20.1613C24.53 20.0743 24.5788 19.9564 24.5788 19.8334V16.6648H31.2918V27.6273H12.7083V16.6648H12.7089ZM23.0257 12.3926L23.5716 15.736H20.4291L20.9744 12.3926H23.0257ZM23.6501 16.6648V19.3684H20.3501V16.6648H23.6501ZM30.9112 15.7354H24.5134L23.9676 12.3926H28.7897L30.9112 15.7354ZM15.2098 12.3932H20.0319L19.4867 15.7366H13.0889L15.2098 12.3932ZM12.7083 31.0231V28.5573H31.2906V31.0231H12.7089H12.7083Z" fill="#2CB4D7"/>
</g>
<defs>
<clipPath id="clip0_281_3663">
<rect width="44" height="44" fill="white"/>
</clipPath>
</defs>
</svg>
