<svg width="47" height="47" viewBox="0 0 47 47" fill="none" xmlns="http://www.w3.org/2000/svg">
<g clip-path="url(#clip0_281_3647)">
<mask id="mask0_281_3647" style="mask-type:luminance" maskUnits="userSpaceOnUse" x="0" y="0" width="47" height="47">
<path d="M0 0H47V47H0V0Z" fill="white"/>
</mask>
<g mask="url(#mask0_281_3647)">
<path d="M23.5 0C10.539 0 0 11.3223 0 25.2092V25.4231C0 25.7787 0.356417 26.1351 0.712833 26.1351C0.901617 26.1347 1.08253 26.0594 1.21587 25.9258C1.34921 25.7922 1.4241 25.6111 1.4241 25.4223C1.49538 22.0759 4.48693 19.2982 8.04718 19.2982C11.6787 19.2982 14.6695 22.0759 14.6695 25.4944C14.6695 25.9213 14.9546 26.2064 15.3823 26.2064C15.8092 26.2064 16.0944 25.9213 16.0944 25.4936C16.0944 22.1472 19.0138 19.4408 22.7167 19.2982V27.061H13.0315C12.6046 27.061 12.3195 27.3454 12.3195 27.7731V46.2872C12.3195 46.7141 12.6046 46.9992 13.0323 46.9992H33.8972C34.3241 46.9992 34.6092 46.7141 34.6092 46.2864V27.7731C34.6092 27.3462 34.3241 27.061 33.8964 27.061H24.2128V19.3703C27.56 19.798 30.1239 22.4331 30.1239 25.4944C30.1239 25.9221 30.4082 26.2072 30.8359 26.2072C31.2628 26.2072 31.548 25.9221 31.548 25.4944C31.548 22.0767 34.6813 19.299 38.5267 19.299C42.3008 19.299 45.5054 22.0767 45.5054 25.4239C45.5054 25.7795 45.861 26.1359 46.2174 26.1359C46.5739 26.1359 46.9303 25.7795 46.9303 25.4231V25.21C47 11.3223 36.4602 0 23.5 0ZM19.939 28.4851V31.689H13.7436V28.4851H19.939ZM13.8149 45.5759V33.1131H19.9397V34.3954C19.9397 34.8231 20.2241 35.1082 20.6518 35.1082H26.3482C26.7759 35.1082 27.061 34.8231 27.061 34.3954V33.1138H33.2564V45.5759H13.8149ZM33.1851 31.6898H27.0602V28.4851H33.2564V31.689H33.1851V31.6898ZM25.6362 33.6833H21.3638V28.4851H25.6362V33.6833ZM38.5972 17.8741C35.1787 17.8741 32.1879 19.7259 30.9056 22.4315C29.6241 19.8685 26.8472 18.0167 23.5713 17.8741H23.2149C19.7972 17.8741 16.8064 19.7259 15.5241 22.4315C14.2426 19.7972 11.4649 17.8741 8.11847 17.8741C5.6259 17.8741 3.34718 18.9426 1.8518 20.7223C3.7741 9.75563 12.7472 1.42488 23.5 1.42488C34.2528 1.42488 43.2972 9.75642 45.2195 20.7944C43.6528 19.0146 41.2323 17.8741 38.5972 17.8741Z" fill="#2CB4D7"/>
<path d="M23.5001 3.70264C20.0816 3.70264 17.2334 6.48034 17.2334 9.8988C17.2334 13.3165 20.0111 16.0942 23.5001 16.0942C26.9185 16.0942 29.7667 13.3165 29.7667 9.89802C29.7667 6.48034 26.9185 3.70264 23.5001 3.70264ZM23.5001 14.7406C20.8649 14.7406 18.6575 12.6044 18.6575 9.97009C18.6575 7.33495 20.7936 5.19802 23.5001 5.19802C26.1352 5.19802 28.3426 7.33495 28.3426 9.9693C28.3426 12.6044 26.1352 14.7406 23.5001 14.7406Z" fill="#2CB4D7"/>
<path d="M25.9206 7.54824L22.5029 11.038L21.2927 9.11491C21.0788 8.75928 20.6519 8.68799 20.2955 8.90184C19.9399 9.11491 19.8686 9.54261 20.0817 9.89824L21.7909 12.6047C21.9335 12.8185 22.076 12.889 22.2891 12.9603C22.5029 12.9603 22.7168 12.8898 22.8594 12.7472L26.9186 8.61671C26.9861 8.5524 27.0399 8.47505 27.0766 8.38934C27.1133 8.30364 27.1323 8.21136 27.1323 8.11812C27.1323 8.02487 27.1133 7.9326 27.0766 7.8469C27.0399 7.76119 26.9861 7.68384 26.9186 7.61953C26.6335 7.26389 26.2058 7.26389 25.9214 7.54903L25.9206 7.54824Z" fill="#2CB4D7"/>
</g>
</g>
<defs>
<clipPath id="clip0_281_3647">
<rect width="47" height="47" fill="white"/>
</clipPath>
</defs>
</svg>
