<svg width="47" height="47" viewBox="0 0 47 47" fill="none" xmlns="http://www.w3.org/2000/svg">
<g clip-path="url(#clip0_239_2860)">
<mask id="mask0_239_2860" style="mask-type:luminance" maskUnits="userSpaceOnUse" x="0" y="0" width="47" height="47">
<path d="M0 0H47V47H0V0Z" fill="white"/>
</mask>
<g mask="url(#mask0_239_2860)">
<path d="M1.06839 42.7271L3.56018 41.2317C3.77403 41.0899 3.98788 41.0899 4.13044 41.2317L5.98146 42.3715C6.55173 42.7271 7.26378 42.7271 7.90454 42.442L10.325 41.2317C10.5397 41.1612 10.7527 41.1612 10.8953 41.303L12.3915 42.3002C13.0315 42.7271 13.8148 42.7271 14.4556 42.3707L16.5212 41.2317C16.6638 41.1612 16.9481 41.1612 17.0907 41.2317L19.0843 42.3715C19.6545 42.7271 20.4379 42.7271 21.0074 42.442L23.2869 41.2317C23.4286 41.1612 23.7138 41.1612 23.8556 41.2317L25.7786 42.3715C26.3481 42.7271 27.1315 42.7271 27.7017 42.442L29.9804 41.2317C30.1935 41.1612 30.4074 41.1612 30.5499 41.2317L32.3304 42.3715C32.8999 42.7271 33.6833 42.7984 34.324 42.442L36.4602 41.303C36.674 41.2325 36.8879 41.2325 37.1017 41.3743L38.1694 42.2289C38.8102 42.7271 39.5935 42.7984 40.3063 42.4428L42.6563 41.2317C42.7981 41.1612 43.012 41.1612 43.2258 41.2317L45.8602 42.7279C46.2166 42.941 46.6435 42.7984 46.8574 42.4428C47.0712 42.0863 46.9286 41.6594 46.573 41.4456L43.9371 39.9502C43.3676 39.5938 42.6556 39.5938 42.014 39.8797L39.664 41.0899C39.4502 41.1604 39.2371 41.1604 39.0232 41.0187L37.9556 40.164C37.6456 39.9231 37.2736 39.775 36.8828 39.7372C36.4921 39.6993 36.0986 39.7732 35.7481 39.9502L33.8971 40.9474C35.6768 39.4512 36.7453 37.3151 36.7453 34.8938V33.8974L42.1581 23.714C42.2286 23.5715 42.2991 23.3576 42.2286 23.1446C42.1713 22.9606 42.0435 22.8068 41.873 22.7169L37.1017 20.5807V12.6761C37.1017 12.2484 36.8166 11.9633 36.3889 11.9633H30.7638V0.713027C30.7638 0.28611 30.4786 0.000976562 30.0509 0.000976562H16.8776C16.4507 0.000976562 16.1656 0.28611 16.1656 0.71381V11.9648H10.5405C10.1128 11.9648 9.82763 12.2492 9.82763 12.6769V20.8658L5.05713 23.0741C4.88651 23.1634 4.75812 23.3166 4.69993 23.5002C4.62864 23.714 4.62864 23.8558 4.77043 24.0697L9.89891 33.6835V34.8938C9.89891 36.8169 10.6117 38.6687 11.822 40.0928L11.7499 40.0207C11.1804 39.593 10.3971 39.593 9.75556 39.8781L7.33506 41.0892C7.19249 41.1597 6.97864 41.1597 6.76479 41.0892L4.91378 39.9502C4.59772 39.775 4.2423 39.6831 3.88095 39.6831C3.5196 39.6831 3.16419 39.775 2.84813 39.9502L0.355561 41.4464C-7.26797e-05 41.6594 -0.071356 42.0863 0.142494 42.4428C0.285061 42.8697 0.711977 42.941 1.06839 42.7271ZM35.8907 32.8297H24.1407V16.4502L40.662 23.7853L35.8915 32.8289L35.8907 32.8297ZM29.4102 3.41866H26.2768V1.42429H29.4102V3.41866ZM24.8527 1.42429V6.05379L23.9989 5.12711C23.9362 5.05755 23.859 5.00247 23.7729 4.96567C23.6867 4.92888 23.5936 4.91127 23.4999 4.91404C23.4063 4.91132 23.3132 4.92896 23.227 4.96575C23.1409 5.00253 23.0637 5.05759 23.0009 5.12711L22.1471 6.05301V1.42429H24.8527ZM20.7222 1.42429V3.41866H17.5889V1.42429H20.7222ZM17.5889 4.84276H20.7222V7.90481C20.7222 8.18994 20.9361 8.47429 21.1499 8.54558C21.4343 8.68814 21.7194 8.54558 21.9333 8.33173L23.4999 6.69456L25.0666 8.40301C25.2804 8.61686 25.5648 8.68814 25.8499 8.61686C26.1351 8.54636 26.2768 8.26123 26.2768 7.97609V4.84276H29.4102V12.0353H17.5897L17.5889 4.84276ZM11.2517 13.3881H35.7481V20.0817L23.7138 14.741C23.5712 14.6705 23.2861 14.6705 23.1435 14.741L11.2509 20.2243V13.3881H11.2517ZM22.7166 16.4502V32.8297H11.0371L6.33709 24.0697L22.7166 16.4502ZM11.3222 34.253H35.4638V34.9658C35.4638 37.3158 34.1815 39.3807 32.1879 40.591L31.3333 40.0928C30.7638 39.7363 29.9804 39.6651 29.3397 40.0215L27.0602 41.2317C26.9184 41.303 26.6333 41.303 26.4907 41.2317L24.5684 40.0928C23.9981 39.7363 23.2148 39.7363 22.6453 40.0215L20.3658 41.2317C20.1829 41.303 19.98 41.303 19.7971 41.2317L17.8027 40.0928C17.4996 39.9179 17.1559 39.8259 16.806 39.8259C16.456 39.8259 16.1123 39.9179 15.8092 40.0928L14.5981 40.7335C12.5333 39.5938 11.1804 37.4576 11.1804 35.0363V34.253H11.3222ZM46.6435 45.6474L44.0797 44.1512C43.5102 43.7956 42.7981 43.7956 42.1574 44.0807L39.8074 45.291C39.5935 45.3622 39.3797 45.3622 39.1666 45.2205L38.0981 44.3651C37.7881 44.1241 37.4161 43.9762 37.0253 43.9385C36.6345 43.9007 36.241 43.9748 35.8907 44.152L33.7545 45.291C33.5407 45.3622 33.3268 45.3622 33.1843 45.291L31.4038 44.152C30.8343 43.7956 30.0509 43.7243 29.4102 44.0807L27.1307 45.291C26.9897 45.3622 26.7045 45.3622 26.562 45.291L24.6389 44.152C24.0694 43.7956 23.2861 43.7956 22.7166 44.0807L20.4371 45.291C20.254 45.3623 20.0507 45.3623 19.8676 45.291L17.874 44.152C17.5708 43.977 17.2269 43.8849 16.8768 43.8849C16.5268 43.8849 16.1829 43.977 15.8797 44.152L13.8148 45.291C13.6009 45.3622 13.3871 45.3622 13.2453 45.291L11.7491 44.2938C11.1797 43.8669 10.3963 43.8669 9.75556 44.152L7.33506 45.3622C7.19171 45.4335 6.97864 45.4335 6.76479 45.3622L4.91299 44.2233C4.59703 44.0483 4.24176 43.9564 3.88056 43.9564C3.51936 43.9564 3.16409 44.0483 2.84813 44.2233L0.355561 45.7187C-7.26797e-05 45.8604 -0.0705727 46.2874 0.0704273 46.6438C0.284277 47.0002 0.711977 47.0715 1.06761 46.9289L3.56018 45.4335C3.77403 45.291 3.98709 45.291 4.12966 45.4335L5.98146 46.5733C6.55094 46.9289 7.26299 46.9289 7.90454 46.6438L10.3243 45.4335C10.5381 45.363 10.752 45.363 10.8945 45.504L12.3899 46.502C13.0307 46.9289 13.814 46.9289 14.4548 46.5725L16.5204 45.4335C16.663 45.363 16.9481 45.363 17.0907 45.4335L19.0843 46.5733C19.6538 46.9289 20.4371 46.9289 21.0074 46.6438L23.2861 45.4335C23.4286 45.363 23.713 45.363 23.8556 45.4335L25.7786 46.5733C26.3481 46.9289 27.1315 46.9289 27.7009 46.6438L29.9804 45.4335C30.1935 45.363 30.4074 45.363 30.5499 45.4335L32.3297 46.5733C32.8999 46.9289 33.6833 47.0002 34.324 46.6438L36.4602 45.5048C36.674 45.3622 36.8871 45.4335 37.1009 45.5753L38.1694 46.4307C38.8102 46.9289 39.5935 47.0002 40.3056 46.6438L42.6556 45.4335C42.7981 45.363 43.012 45.363 43.225 45.4335L45.8602 46.9297C46.2166 47.1428 46.6435 47.0002 46.8574 46.6438C47.0712 46.2881 46.9999 45.8604 46.6435 45.6474Z" fill="#2CB4D7"/>
<path d="M18.9426 24.9962C19.5274 24.9933 20.0875 24.7596 20.5008 24.3459C20.9142 23.9322 21.1476 23.372 21.15 22.7872C21.1469 22.2028 20.9134 21.6432 20.5 21.23C20.0867 20.8168 19.527 20.5834 18.9426 20.5806C18.3579 20.5832 17.7979 20.8166 17.3844 21.23C16.9709 21.6434 16.7373 22.2033 16.7344 22.788C16.7373 23.3727 16.9709 23.9326 17.3844 24.346C17.7979 24.7594 18.3579 24.9935 18.9426 24.9962ZM18.9426 22.0039C19.3695 22.0039 19.7259 22.3603 19.7259 22.7872C19.7259 23.2149 19.3695 23.5705 18.9426 23.5705C18.5149 23.5705 18.1593 23.2149 18.1593 22.7872C18.1593 22.3603 18.5149 22.0039 18.9426 22.0039ZM28.0575 24.9962C28.6423 24.9933 29.2023 24.7596 29.6157 24.3459C30.0291 23.9322 30.2624 23.372 30.2649 22.7872C30.2618 22.2028 30.0282 21.6432 29.6149 21.23C29.2016 20.8168 28.6419 20.5834 28.0575 20.5806C27.473 20.5834 26.9134 20.8168 26.5 21.23C26.0867 21.6432 25.8531 22.2028 25.85 22.7872C25.8529 23.3718 26.0864 23.9316 26.4998 24.3449C26.9131 24.7583 27.4729 24.9918 28.0575 24.9946V24.9962ZM28.0575 22.0039C28.4844 22.0039 28.8408 22.3603 28.8408 22.7872C28.8408 23.2149 28.4844 23.5705 28.0575 23.5705C27.6305 23.5705 27.2741 23.2149 27.2741 22.7872C27.2741 22.3603 27.6305 22.0039 28.0575 22.0039Z" fill="#2CB4D7"/>
</g>
</g>
<defs>
<clipPath id="clip0_239_2860">
<rect width="47" height="47" fill="white"/>
</clipPath>
</defs>
</svg>
