<svg width="43" height="43" viewBox="0 0 43 43" fill="none" xmlns="http://www.w3.org/2000/svg">
<path d="M6.2491 7.89433C8.46221 7.89433 10.2194 6.14753 10.2194 3.94753C10.2194 1.74753 8.3973 0 6.2491 0C4.03598 0 2.27877 1.74753 2.27877 3.94753C2.27877 6.14753 4.03598 7.89433 6.2491 7.89433ZM6.2491 1.29433C6.6007 1.2904 6.94954 1.35635 7.27515 1.48829C7.60075 1.62024 7.89656 1.81552 8.14519 2.06268C8.39382 2.30984 8.59027 2.60389 8.723 2.92757C8.85573 3.25124 8.92207 3.59802 8.91812 3.94753C8.92197 4.29699 8.85556 4.64368 8.72279 4.96727C8.59001 5.29086 8.39355 5.58483 8.14492 5.83191C7.8963 6.07899 7.60053 6.27421 7.27497 6.40611C6.94942 6.53801 6.60063 6.60393 6.2491 6.6C4.75156 6.6 3.58008 5.37093 3.58008 3.94753C3.57613 3.59802 3.64247 3.25124 3.7752 2.92757C3.90793 2.60389 4.10438 2.30984 4.35301 2.06268C4.60164 1.81552 4.89745 1.62024 5.22305 1.48829C5.54866 1.35635 5.8975 1.2904 6.2491 1.29433ZM7.35566 8.1532H5.27312C2.40861 8.1532 0.0649181 10.483 0.0649181 13.3298V15.0766C0.0649181 15.5943 0.52082 16.0475 1.04164 16.0475H11.5215C12.0423 16.0475 12.4982 15.5943 12.4982 15.0766V13.3305C12.5631 10.483 10.2194 8.15393 7.35639 8.15393L7.35566 8.1532ZM11.2611 14.7532H1.36697V13.3298C1.36697 11.1943 3.12492 9.44753 5.27312 9.44753H7.35566C9.50385 9.44753 11.2611 11.1943 11.2611 13.3298V14.7532ZM10.0896 30.6057C10.0896 28.4057 8.33238 26.6589 6.11926 26.6589C3.90615 26.6589 2.1482 28.4064 2.1482 30.6064C2.1482 32.8064 3.90615 34.5532 6.11926 34.5532C8.33238 34.5532 10.0896 32.8057 10.0896 30.6057ZM3.45025 30.6057C3.44639 30.2562 3.5128 29.9095 3.64558 29.5859C3.77835 29.2623 3.97482 28.9684 4.22344 28.7213C4.47206 28.4742 4.76783 28.279 5.09339 28.1471C5.41895 28.0152 5.76773 27.9493 6.11926 27.9532C6.47074 27.9494 6.81944 28.0154 7.14491 28.1473C7.47038 28.2792 7.76606 28.4745 8.01461 28.7216C8.26315 28.9686 8.45955 29.2626 8.59228 29.5861C8.72501 29.9096 8.7914 30.2563 8.78754 30.6057C8.79149 30.9551 8.72518 31.3018 8.5925 31.6255C8.45981 31.9491 8.26343 32.2431 8.01487 32.4903C7.76632 32.7374 7.4706 32.9327 7.14508 33.0647C6.81956 33.1967 6.4708 33.2627 6.11926 33.2589C5.76773 33.2628 5.41895 33.1969 5.09339 33.065C4.76783 32.9331 4.47206 32.7379 4.22344 32.4908C3.97482 32.2437 3.77835 31.9497 3.64558 31.6261C3.5128 31.3026 3.44639 30.9551 3.45025 30.6057ZM7.29074 34.8121H5.20672C2.34295 34.8121 0 37.1411 0 39.9887V41.7355C0 41.9943 0.129836 42.2532 0.26041 42.4468C0.455164 42.5766 0.715574 42.7057 0.975984 42.7057H11.4558C11.9766 42.7057 12.4318 42.2532 12.4318 41.7355V39.9887C12.4318 37.1411 10.1538 34.8113 7.29 34.8113L7.29074 34.8121ZM11.1312 41.4121H1.30205V39.9887C1.30205 37.8532 3.06 36.1064 5.20746 36.1064H7.29074C9.43894 36.1064 11.1961 37.8532 11.1961 39.9887V41.4113L11.1312 41.4121ZM36.6477 7.89433C38.8608 7.89433 40.6173 6.14753 40.6173 3.94753C40.6173 1.74753 38.8601 0 36.647 0C34.4339 0 32.6766 1.74753 32.6766 3.94753C32.6766 6.14753 34.4339 7.89433 36.647 7.89433H36.6477ZM36.6477 1.29433C36.9992 1.2905 37.348 1.35652 37.6735 1.48851C37.9991 1.62049 38.2948 1.8158 38.5433 2.06295C38.7919 2.31009 38.9883 2.60411 39.1209 2.92774C39.2536 3.25137 39.3199 3.59808 39.316 3.94753C39.3198 4.29699 39.2534 4.64368 39.1207 4.96727C38.9879 5.29086 38.7914 5.58483 38.5428 5.83191C38.2942 6.07899 37.9984 6.27421 37.6728 6.40611C37.3473 6.53801 36.9985 6.60393 36.647 6.6C36.2955 6.60383 35.9468 6.53784 35.6213 6.40589C35.2959 6.27395 35.0002 6.07872 34.7516 5.83165C34.5031 5.58457 34.3067 5.29064 34.174 4.9671C34.0412 4.64356 33.9748 4.29692 33.9787 3.94753C33.9747 3.59808 34.0411 3.25137 34.1737 2.92774C34.3064 2.60411 34.5028 2.31009 34.7514 2.06295C34.9999 1.8158 35.2956 1.62049 35.6212 1.48851C35.9467 1.35652 36.2954 1.2905 36.647 1.29433H36.6477ZM37.7535 8.1532H35.671C32.8065 8.1532 30.4628 10.483 30.4628 13.3298V15.0766C30.4628 15.5943 30.9187 16.0475 31.4395 16.0475H41.9194C42.1798 16.0475 42.4402 15.9177 42.6349 15.7887C42.8304 15.6589 42.8961 15.3355 42.8961 15.0773V13.3298C42.961 10.4823 40.6166 8.1532 37.7535 8.1532ZM41.6589 14.7532H31.8305V13.3298C31.8305 11.1943 33.5877 9.44753 35.7359 9.44753H37.7535C39.9017 9.44753 41.6589 11.1943 41.6589 13.3298V14.7532ZM40.5524 30.6057C40.5524 28.4057 38.7952 26.6589 36.5821 26.6589C34.3689 26.6589 32.611 28.4064 32.611 30.6064C32.611 32.8064 34.3689 34.5532 36.5821 34.5532C38.7303 34.5532 40.5524 32.8057 40.5524 30.6057ZM33.8481 30.6057C33.8443 30.2563 33.9107 29.9096 34.0434 29.5861C34.1761 29.2626 34.3725 28.9686 34.6211 28.7216C34.8696 28.4745 35.1653 28.2792 35.4908 28.1473C35.8162 28.0154 36.1649 27.9494 36.5164 27.9532C36.8679 27.9493 37.2167 28.0152 37.5423 28.1471C37.8678 28.279 38.1636 28.4742 38.4122 28.7213C38.6608 28.9684 38.8573 29.2623 38.9901 29.5859C39.1229 29.9095 39.1893 30.2562 39.1854 30.6057C39.1894 30.9551 39.1231 31.3018 38.9904 31.6255C38.8577 31.9491 38.6613 32.2431 38.4127 32.4903C38.1642 32.7374 37.8685 32.9327 37.543 33.0647C37.2174 33.1967 36.8687 33.2627 36.5171 33.2589C36.1656 33.2628 35.8168 33.1969 35.4913 33.065C35.1657 32.9331 34.8699 32.7379 34.6213 32.4908C34.3727 32.2437 34.1762 31.9497 34.0435 31.6261C33.9107 31.3026 33.8443 30.9551 33.8481 30.6057ZM37.6879 34.8121H35.6053C32.7416 34.8121 30.3979 37.1411 30.3979 39.9887V41.7355C30.3979 42.2532 30.8538 42.7064 31.3746 42.7064H41.8544C42.3753 42.7064 42.8304 42.2532 42.8304 41.7355V39.9887C42.8961 37.1411 40.5524 34.8113 37.6886 34.8113L37.6879 34.8121ZM41.594 41.4121H31.6999V39.9887C31.6999 37.8532 33.4571 36.1064 35.6053 36.1064H37.6886C39.8368 36.1064 41.594 37.8532 41.594 39.9887V41.4121ZM27.4692 18.1177L28.7056 16.8887C28.7674 16.8302 28.8166 16.7599 28.8502 16.682C28.8838 16.6041 28.9011 16.5202 28.9011 16.4355C28.9011 16.3507 28.8838 16.2668 28.8502 16.1889C28.8166 16.111 28.7674 16.0407 28.7056 15.9823C28.6468 15.921 28.5761 15.8722 28.4978 15.8388C28.4195 15.8055 28.3352 15.7883 28.25 15.7883C28.1649 15.7883 28.0806 15.8055 28.0023 15.8388C27.924 15.8722 27.8533 15.921 27.7945 15.9823L26.5581 17.2121C25.1478 15.9995 23.3451 15.333 21.4805 15.3347C19.5278 15.3347 17.7698 16.0475 16.4036 17.2121L15.1665 15.9823C15.1077 15.921 15.037 15.8722 14.9587 15.8388C14.8804 15.8055 14.7961 15.7883 14.7109 15.7883C14.6258 15.7883 14.5415 15.8055 14.4632 15.8388C14.3849 15.8722 14.3142 15.921 14.2554 15.9823C14.1936 16.0407 14.1444 16.111 14.1108 16.1889C14.0772 16.2668 14.0599 16.3507 14.0599 16.4355C14.0599 16.5202 14.0772 16.6041 14.1108 16.682C14.1444 16.7599 14.1936 16.8302 14.2554 16.8887L15.4925 18.1177C14.273 19.5195 13.6025 21.3112 13.604 23.1645C13.604 25.1064 14.3203 26.8532 15.4925 28.2121L14.2554 29.4411C14.1937 29.4996 14.1447 29.5698 14.1111 29.6476C14.0776 29.7255 14.0603 29.8093 14.0603 29.894C14.0603 29.9786 14.0776 30.0624 14.1111 30.1403C14.1447 30.2181 14.1937 30.2884 14.2554 30.3468C14.3142 30.4081 14.3849 30.4569 14.4632 30.4902C14.5415 30.5236 14.6258 30.5408 14.7109 30.5408C14.7961 30.5408 14.8804 30.5236 14.9587 30.4902C15.037 30.4569 15.1077 30.4081 15.1665 30.3468L16.4036 29.1177C17.8138 30.3298 19.6162 30.9961 21.4805 30.9943C23.4332 30.9943 25.1912 30.283 26.5581 29.1177L27.7945 30.3468C27.8533 30.4081 27.924 30.4569 28.0023 30.4902C28.0806 30.5236 28.1649 30.5408 28.25 30.5408C28.3352 30.5408 28.4195 30.5236 28.4978 30.4902C28.5761 30.4569 28.6468 30.4081 28.7056 30.3468C28.7672 30.2884 28.8163 30.2181 28.8499 30.1403C28.8834 30.0624 28.9007 29.9786 28.9007 29.894C28.9007 29.8093 28.8834 29.7255 28.8499 29.6476C28.8163 29.5698 28.7672 29.4996 28.7056 29.4411L27.4692 28.2121C28.6887 26.81 29.3589 25.018 29.357 23.1645C29.357 21.2234 28.6421 19.4766 27.4692 18.1177ZM24.2793 24.9766C24.2206 24.9153 24.1499 24.8665 24.0716 24.8332C23.9933 24.7998 23.909 24.7826 23.8238 24.7826C23.7386 24.7826 23.6543 24.7998 23.576 24.8332C23.4977 24.8665 23.427 24.9153 23.3683 24.9766C23.3066 25.035 23.2575 25.1053 23.224 25.1831C23.1904 25.261 23.1731 25.3448 23.1731 25.4294C23.1731 25.5141 23.1904 25.5979 23.224 25.6758C23.2575 25.7536 23.3066 25.8238 23.3683 25.8823L25.6463 28.1468C24.4697 29.1018 22.9995 29.6272 21.4805 29.6355C19.9188 29.6355 18.4862 29.0532 17.3147 28.1468L19.5927 25.8823C19.6544 25.8238 19.7035 25.7536 19.737 25.6758C19.7706 25.5979 19.7878 25.5141 19.7878 25.4294C19.7878 25.3448 19.7706 25.261 19.737 25.1831C19.7035 25.1053 19.6544 25.035 19.5927 24.9766C19.5339 24.9153 19.4633 24.8665 19.385 24.8332C19.3067 24.7998 19.2224 24.7826 19.1372 24.7826C19.052 24.7826 18.9677 24.7998 18.8894 24.8332C18.8111 24.8665 18.7404 24.9153 18.6816 24.9766L16.4036 27.2411C15.4429 26.0715 14.9143 24.61 14.9061 23.1C14.9061 21.5475 15.4925 20.1234 16.4036 18.9589L18.6816 21.2234C18.7404 21.2847 18.8111 21.3335 18.8894 21.3668C18.9677 21.4002 19.052 21.4174 19.1372 21.4174C19.2224 21.4174 19.3067 21.4002 19.385 21.3668C19.4633 21.3335 19.5339 21.2847 19.5927 21.2234C19.6544 21.165 19.7035 21.0947 19.737 21.0169C19.7706 20.939 19.7878 20.8552 19.7878 20.7706C19.7878 20.6859 19.7706 20.6021 19.737 20.5243C19.7035 20.4464 19.6544 20.3762 19.5927 20.3177L17.3147 18.1177C18.4913 17.1627 19.9615 16.6373 21.4805 16.6291C23.043 16.6291 24.4748 17.2121 25.6463 18.1177L23.3683 20.3823C23.3065 20.4407 23.2573 20.511 23.2237 20.5889C23.1901 20.6668 23.1728 20.7507 23.1728 20.8355C23.1728 20.9202 23.1901 21.0041 23.2237 21.082C23.2573 21.1599 23.3065 21.2302 23.3683 21.2887C23.427 21.35 23.4977 21.3988 23.576 21.4321C23.6543 21.4655 23.7386 21.4827 23.8238 21.4827C23.909 21.4827 23.9933 21.4655 24.0716 21.4321C24.1499 21.3988 24.2206 21.35 24.2793 21.2887L26.5581 19.0234C27.5186 20.1931 28.0469 21.6547 28.0549 23.1645C28.0549 24.7177 27.4692 26.1419 26.5574 27.3064L24.2793 24.9766Z" fill="#2CB4D7"/>
</svg>
