<svg width="1198" height="600" viewBox="0 0 1198 600" fill="none" xmlns="http://www.w3.org/2000/svg">
<path d="M601.152 302.887C601.883 302.887 602.492 302.277 602.492 301.545C602.492 300.813 601.883 300.203 601.152 300.203C600.421 300.203 599.812 300.813 599.812 301.545C599.812 302.277 600.421 302.887 601.152 302.887ZM607.445 302.887C608.176 302.887 608.785 302.277 608.785 301.545C608.785 300.813 608.176 300.203 607.445 300.203C606.714 300.203 606.105 300.813 606.105 301.545C606.105 302.277 606.714 302.887 607.445 302.887ZM605.09 307.806C605.821 307.806 606.43 307.196 606.43 306.464C606.43 305.732 605.821 305.123 605.09 305.123C604.359 305.123 603.75 305.732 603.75 306.464C603.75 307.196 604.359 307.806 605.09 307.806ZM599.771 309.026C600.502 309.026 601.111 308.416 601.111 307.684C601.111 306.952 600.502 306.342 599.771 306.342C599.041 306.342 598.432 306.952 598.432 307.684C598.432 308.416 599.041 309.026 599.771 309.026ZM595.508 305.61C596.239 305.61 596.848 305.001 596.848 304.269C596.848 303.537 596.239 302.927 595.508 302.927C594.777 302.927 594.168 303.537 594.168 304.269C594.168 305.001 594.777 305.61 595.508 305.61ZM595.508 300.163C596.239 300.163 596.848 299.553 596.848 298.821C596.848 298.089 596.239 297.479 595.508 297.479C594.777 297.479 594.168 298.089 594.168 298.821C594.168 299.553 594.777 300.163 595.508 300.163ZM599.771 296.747C600.502 296.747 601.111 296.138 601.111 295.406C601.111 294.674 600.502 294.064 599.771 294.064C599.041 294.064 598.432 294.674 598.432 295.406C598.432 296.138 599.041 296.747 599.771 296.747ZM605.09 297.967C605.821 297.967 606.43 297.357 606.43 296.626C606.43 295.894 605.821 295.284 605.09 295.284C604.359 295.284 603.75 295.894 603.75 296.626C603.75 297.357 604.359 297.967 605.09 297.967ZM613.739 302.887C614.469 302.887 615.078 302.277 615.078 301.545C615.078 300.813 614.469 300.203 613.739 300.203C613.008 300.203 612.399 300.813 612.399 301.545C612.399 302.277 613.008 302.887 613.739 302.887ZM612.48 308.334C613.211 308.334 613.82 307.725 613.82 306.993C613.82 306.261 613.211 305.651 612.48 305.651C611.749 305.651 611.14 306.261 611.14 306.993C611.14 307.725 611.749 308.334 612.48 308.334ZM608.988 312.725C609.719 312.725 610.328 312.115 610.328 311.384C610.328 310.652 609.719 310.042 608.988 310.042C608.257 310.042 607.648 310.652 607.648 311.384C607.648 312.115 608.257 312.725 608.988 312.725ZM603.953 315.124C604.684 315.124 605.293 314.514 605.293 313.782C605.293 313.051 604.684 312.441 603.953 312.441C603.223 312.441 602.614 313.051 602.614 313.782C602.614 314.514 603.223 315.124 603.953 315.124ZM598.35 315.124C599.081 315.124 599.69 314.514 599.69 313.782C599.69 313.051 599.081 312.441 598.35 312.441C597.62 312.441 597.01 313.051 597.01 313.782C597.01 314.514 597.62 315.124 598.35 315.124ZM593.316 312.725C594.047 312.725 594.656 312.115 594.656 311.384C594.656 310.652 594.047 310.042 593.316 310.042C592.585 310.042 591.976 310.652 591.976 311.384C591.976 312.115 592.585 312.725 593.316 312.725ZM589.824 308.334C590.555 308.334 591.164 307.725 591.164 306.993C591.164 306.261 590.555 305.651 589.824 305.651C589.093 305.651 588.484 306.261 588.484 306.993C588.484 307.725 589.093 308.334 589.824 308.334ZM588.606 302.887C589.337 302.887 589.946 302.277 589.946 301.545C589.946 300.813 589.337 300.203 588.606 300.203C587.875 300.203 587.266 300.813 587.266 301.545C587.266 302.277 587.875 302.887 588.606 302.887ZM589.824 297.398C590.555 297.398 591.164 296.788 591.164 296.056C591.164 295.325 590.555 294.715 589.824 294.715C589.093 294.715 588.484 295.325 588.484 296.056C588.484 296.788 589.093 297.398 589.824 297.398ZM593.316 293.048C594.047 293.048 594.656 292.438 594.656 291.706C594.656 290.974 594.047 290.365 593.316 290.365C592.585 290.365 591.976 290.974 591.976 291.706C591.976 292.438 592.585 293.048 593.316 293.048ZM598.35 290.608C599.081 290.608 599.69 289.999 599.69 289.267C599.69 288.535 599.081 287.925 598.35 287.925C597.62 287.925 597.01 288.535 597.01 289.267C597.01 289.999 597.62 290.608 598.35 290.608ZM603.953 290.608C604.684 290.608 605.293 289.999 605.293 289.267C605.293 288.535 604.684 287.925 603.953 287.925C603.223 287.925 602.614 288.535 602.614 289.267C602.614 289.999 603.223 290.608 603.953 290.608ZM608.988 293.048C609.719 293.048 610.328 292.438 610.328 291.706C610.328 290.974 609.719 290.365 608.988 290.365C608.257 290.365 607.648 290.974 607.648 291.706C607.648 292.438 608.257 293.048 608.988 293.048ZM612.48 297.398C613.211 297.398 613.82 296.788 613.82 296.056C613.82 295.325 613.211 294.715 612.48 294.715C611.749 294.715 611.14 295.325 611.14 296.056C611.14 296.788 611.749 297.398 612.48 297.398ZM619.991 302.887C620.722 302.887 621.331 302.277 621.331 301.545C621.331 300.813 620.722 300.203 619.991 300.203C619.26 300.203 618.651 300.813 618.651 301.545C618.651 302.277 619.26 302.887 619.991 302.887Z" fill="#2CB4D7"/>
<path d="M619.179 308.456C619.919 308.456 620.519 307.856 620.519 307.115C620.519 306.374 619.919 305.773 619.179 305.773C618.439 305.773 617.839 306.374 617.839 307.115C617.839 307.856 618.439 308.456 619.179 308.456Z" fill="#2CB4D7"/>
<path d="M616.743 313.498C617.474 313.498 618.083 312.888 618.083 312.156C618.083 311.424 617.474 310.814 616.743 310.814C616.012 310.814 615.403 311.424 615.403 312.156C615.403 312.888 616.012 313.498 616.743 313.498ZM612.927 317.645C613.657 317.645 614.266 317.035 614.266 316.303C614.266 315.571 613.657 314.961 612.927 314.961C612.196 314.961 611.587 315.571 611.587 316.303C611.587 317.035 612.196 317.645 612.927 317.645ZM608.054 320.45C608.785 320.45 609.394 319.84 609.394 319.108C609.394 318.376 608.785 317.767 608.054 317.767C607.323 317.767 606.714 318.376 606.714 319.108C606.714 319.84 607.323 320.45 608.054 320.45ZM602.573 321.71C603.304 321.71 603.913 321.1 603.913 320.369C603.913 319.637 603.304 319.027 602.573 319.027C601.842 319.027 601.233 319.637 601.233 320.369C601.233 321.1 601.842 321.71 602.573 321.71ZM596.97 321.263C597.701 321.263 598.31 320.653 598.31 319.921C598.31 319.19 597.701 318.58 596.97 318.58C596.239 318.58 595.63 319.19 595.63 319.921C595.63 320.653 596.239 321.263 596.97 321.263ZM591.732 319.23C592.463 319.23 593.072 318.62 593.072 317.889C593.072 317.157 592.463 316.547 591.732 316.547C591.001 316.547 590.392 317.157 590.392 317.889C590.392 318.62 591.001 319.23 591.732 319.23Z" fill="#2CB4D7"/>
<path d="M587.347 315.693C588.087 315.693 588.687 315.093 588.687 314.352C588.687 313.611 588.087 313.01 587.347 313.01C586.607 313.01 586.007 313.611 586.007 314.352C586.007 315.093 586.607 315.693 587.347 315.693Z" fill="#2CB4D7"/>
<path d="M584.18 311.058C584.911 311.058 585.52 310.449 585.52 309.717C585.52 308.985 584.911 308.375 584.18 308.375C583.449 308.375 582.84 308.985 582.84 309.717C582.84 310.449 583.449 311.058 584.18 311.058ZM582.516 305.692C583.246 305.692 583.855 305.082 583.855 304.35C583.855 303.618 583.246 303.009 582.516 303.009C581.785 303.009 581.176 303.618 581.176 304.35C581.176 305.082 581.785 305.692 582.516 305.692ZM582.516 300.081C583.246 300.081 583.855 299.472 583.855 298.74C583.855 298.008 583.246 297.398 582.516 297.398C581.785 297.398 581.176 298.008 581.176 298.74C581.176 299.472 581.785 300.081 582.516 300.081ZM584.18 294.674C584.911 294.674 585.52 294.064 585.52 293.332C585.52 292.601 584.911 291.991 584.18 291.991C583.449 291.991 582.84 292.601 582.84 293.332C582.84 294.064 583.449 294.674 584.18 294.674ZM587.347 290.039C588.078 290.039 588.687 289.43 588.687 288.698C588.687 287.966 588.078 287.356 587.347 287.356C586.616 287.356 586.007 287.966 586.007 288.698C586.007 289.43 586.616 290.039 587.347 290.039ZM591.732 286.543C592.463 286.543 593.072 285.933 593.072 285.201C593.072 284.469 592.463 283.86 591.732 283.86C591.001 283.86 590.392 284.469 590.392 285.201C590.392 285.933 591.001 286.543 591.732 286.543ZM596.97 284.469C597.701 284.469 598.31 283.86 598.31 283.128C598.31 282.396 597.701 281.786 596.97 281.786C596.239 281.786 595.63 282.396 595.63 283.128C595.63 283.86 596.239 284.469 596.97 284.469ZM602.573 284.063C603.304 284.063 603.913 283.453 603.913 282.721C603.913 281.989 603.304 281.38 602.573 281.38C601.842 281.38 601.233 281.989 601.233 282.721C601.233 283.453 601.842 284.063 602.573 284.063ZM608.054 285.323C608.785 285.323 609.394 284.713 609.394 283.982C609.394 283.25 608.785 282.64 608.054 282.64C607.323 282.64 606.714 283.25 606.714 283.982C606.714 284.713 607.323 285.323 608.054 285.323ZM612.926 288.129C613.657 288.129 614.266 287.519 614.266 286.787C614.266 286.055 613.657 285.445 612.926 285.445C612.196 285.445 611.587 286.055 611.587 286.787C611.587 287.519 612.196 288.129 612.926 288.129ZM616.743 292.235C617.474 292.235 618.083 291.625 618.083 290.893C618.083 290.161 617.474 289.551 616.743 289.551C616.012 289.551 615.403 290.161 615.403 290.893C615.403 291.625 616.012 292.235 616.743 292.235ZM619.179 297.317C619.91 297.317 620.519 296.707 620.519 295.975C620.519 295.243 619.91 294.633 619.179 294.633C618.448 294.633 617.839 295.243 617.839 295.975C617.839 296.707 618.448 297.317 619.179 297.317ZM626.284 302.887C627.015 302.887 627.624 302.277 627.624 301.545C627.624 300.813 627.015 300.203 626.284 300.203C625.554 300.203 624.945 300.813 624.945 301.545C624.945 302.277 625.554 302.887 626.284 302.887Z" fill="#2CB4D7"/>
<path d="M625.676 308.456C626.415 308.456 627.015 307.856 627.015 307.115C627.015 306.374 626.415 305.773 625.676 305.773C624.936 305.773 624.336 306.374 624.336 307.115C624.336 307.856 624.936 308.456 625.676 308.456Z" fill="#2CB4D7"/>
<path d="M623.808 313.782C624.539 313.782 625.148 313.173 625.148 312.441C625.148 311.709 624.539 311.099 623.808 311.099C623.077 311.099 622.468 311.709 622.468 312.441C622.468 313.173 623.077 313.782 623.808 313.782Z" fill="#2CB4D7"/>
<path d="M620.803 318.58C621.543 318.58 622.143 317.979 622.143 317.238C622.143 316.497 621.543 315.896 620.803 315.896C620.063 315.896 619.463 316.497 619.463 317.238C619.463 317.979 620.063 318.58 620.803 318.58Z" fill="#2CB4D7"/>
<path d="M616.824 322.564C617.555 322.564 618.164 321.954 618.164 321.222C618.164 320.491 617.555 319.881 616.824 319.881C616.093 319.881 615.484 320.491 615.484 321.222C615.484 321.954 616.093 322.564 616.824 322.564ZM612.074 325.532C612.805 325.532 613.414 324.922 613.414 324.19C613.414 323.458 612.805 322.849 612.074 322.849C611.343 322.849 610.734 323.458 610.734 324.19C610.734 324.922 611.343 325.532 612.074 325.532ZM606.755 327.402C607.486 327.402 608.095 326.792 608.095 326.06C608.095 325.329 607.486 324.719 606.755 324.719C606.024 324.719 605.415 325.329 605.415 326.06C605.415 326.792 606.024 327.402 606.755 327.402ZM601.152 328.053C601.883 328.053 602.492 327.443 602.492 326.711C602.492 325.979 601.883 325.369 601.152 325.369C600.421 325.369 599.812 325.979 599.812 326.711C599.812 327.443 600.421 328.053 601.152 328.053ZM595.549 327.402C596.28 327.402 596.889 326.792 596.889 326.06C596.889 325.329 596.28 324.719 595.549 324.719C594.818 324.719 594.209 325.329 594.209 326.06C594.209 326.792 594.818 327.402 595.549 327.402ZM590.271 325.532C591.001 325.532 591.61 324.922 591.61 324.19C591.61 323.458 591.001 322.849 590.271 322.849C589.54 322.849 588.931 323.458 588.931 324.19C588.931 324.922 589.54 325.532 590.271 325.532ZM585.48 322.564C586.21 322.564 586.819 321.954 586.819 321.222C586.819 320.491 586.21 319.881 585.48 319.881C584.749 319.881 584.14 320.491 584.14 321.222C584.14 321.954 584.749 322.564 585.48 322.564Z" fill="#2CB4D7"/>
<path d="M581.501 318.58C582.241 318.58 582.84 317.979 582.84 317.238C582.84 316.497 582.241 315.896 581.501 315.896C580.761 315.896 580.161 316.497 580.161 317.238C580.161 317.979 580.761 318.58 581.501 318.58Z" fill="#2CB4D7"/>
<path d="M578.537 313.782C579.268 313.782 579.877 313.172 579.877 312.441C579.877 311.709 579.268 311.099 578.537 311.099C577.806 311.099 577.197 311.709 577.197 312.441C577.197 313.172 577.806 313.782 578.537 313.782ZM576.669 308.456C577.4 308.456 578.009 307.847 578.009 307.115C578.009 306.383 577.4 305.773 576.669 305.773C575.938 305.773 575.329 306.383 575.329 307.115C575.329 307.847 575.938 308.456 576.669 308.456ZM576.019 302.887C576.75 302.887 577.359 302.277 577.359 301.545C577.359 300.813 576.75 300.203 576.019 300.203C575.288 300.203 574.679 300.813 574.679 301.545C574.679 302.277 575.288 302.887 576.019 302.887ZM576.669 297.276C577.4 297.276 578.009 296.666 578.009 295.934C578.009 295.203 577.4 294.593 576.669 294.593C575.938 294.593 575.329 295.203 575.329 295.934C575.329 296.666 575.938 297.276 576.669 297.276ZM578.537 291.95C579.268 291.95 579.877 291.34 579.877 290.608C579.877 289.877 579.268 289.267 578.537 289.267C577.806 289.267 577.197 289.877 577.197 290.608C577.197 291.34 577.806 291.95 578.537 291.95ZM581.501 287.193C582.231 287.193 582.84 286.583 582.84 285.852C582.84 285.12 582.231 284.51 581.501 284.51C580.77 284.51 580.161 285.12 580.161 285.852C580.161 286.583 580.77 287.193 581.501 287.193ZM585.48 283.209C586.21 283.209 586.819 282.599 586.819 281.867C586.819 281.136 586.21 280.526 585.48 280.526C584.749 280.526 584.14 281.136 584.14 281.867C584.14 282.599 584.749 283.209 585.48 283.209ZM590.271 280.201C591.001 280.201 591.61 279.591 591.61 278.859C591.61 278.127 591.001 277.517 590.271 277.517C589.54 277.517 588.931 278.127 588.931 278.859C588.931 279.591 589.54 280.201 590.271 280.201ZM595.549 278.33C596.28 278.33 596.889 277.721 596.889 276.989C596.889 276.257 596.28 275.647 595.549 275.647C594.818 275.647 594.209 276.257 594.209 276.989C594.209 277.721 594.818 278.33 595.549 278.33ZM601.152 277.721C601.883 277.721 602.492 277.111 602.492 276.379C602.492 275.647 601.883 275.037 601.152 275.037C600.421 275.037 599.812 275.647 599.812 276.379C599.812 277.111 600.421 277.721 601.152 277.721ZM606.755 278.33C607.486 278.33 608.095 277.721 608.095 276.989C608.095 276.257 607.486 275.647 606.755 275.647C606.024 275.647 605.415 276.257 605.415 276.989C605.415 277.721 606.024 278.33 606.755 278.33ZM612.074 280.201C612.805 280.201 613.414 279.591 613.414 278.859C613.414 278.127 612.805 277.517 612.074 277.517C611.343 277.517 610.734 278.127 610.734 278.859C610.734 279.591 611.343 280.201 612.074 280.201ZM616.824 283.209C617.555 283.209 618.164 282.599 618.164 281.867C618.164 281.136 617.555 280.526 616.824 280.526C616.093 280.526 615.484 281.136 615.484 281.867C615.484 282.599 616.093 283.209 616.824 283.209ZM620.803 287.193C621.534 287.193 622.143 286.583 622.143 285.852C622.143 285.12 621.534 284.51 620.803 284.51C620.072 284.51 619.463 285.12 619.463 285.852C619.463 286.583 620.072 287.193 620.803 287.193ZM623.808 291.95C624.539 291.95 625.148 291.34 625.148 290.608C625.148 289.877 624.539 289.267 623.808 289.267C623.077 289.267 622.468 289.877 622.468 290.608C622.468 291.34 623.077 291.95 623.808 291.95ZM625.675 297.276C626.406 297.276 627.015 296.666 627.015 295.934C627.015 295.203 626.406 294.593 625.675 294.593C624.945 294.593 624.336 295.203 624.336 295.934C624.336 296.666 624.945 297.276 625.675 297.276ZM632.578 302.887C633.309 302.887 633.918 302.277 633.918 301.545C633.918 300.813 633.309 300.203 632.578 300.203C631.847 300.203 631.238 300.813 631.238 301.545C631.238 302.277 631.847 302.887 632.578 302.887Z" fill="#2CB4D7"/>
</svg>
