<svg width="20" height="34" viewBox="0 0 20 34" fill="none" xmlns="http://www.w3.org/2000/svg">
<path d="M0.799805 2.05002C0.799805 1.74503 0.920965 1.45252 1.13663 1.23685C1.3523 1.02119 1.64481 0.900024 1.9498 0.900024H18.0498C18.3548 0.900024 18.6473 1.02119 18.863 1.23685C19.0786 1.45252 19.1998 1.74503 19.1998 2.05002V31.95C19.1998 32.255 19.0786 32.5475 18.863 32.7632C18.6473 32.9789 18.3548 33.1 18.0498 33.1H1.9498C1.64481 33.1 1.3523 32.9789 1.13663 32.7632C0.920965 32.5475 0.799805 32.255 0.799805 31.95V2.05002Z" fill="#2CB4D7" fill-opacity="0.2"/>
<path d="M12.2998 29.65H7.6998M1.9498 33.1H18.0498C18.3548 33.1 18.6473 32.9789 18.863 32.7632C19.0786 32.5475 19.1998 32.255 19.1998 31.95V2.05002C19.1998 1.74503 19.0786 1.45252 18.863 1.23685C18.6473 1.02119 18.3548 0.900024 18.0498 0.900024H1.9498C1.64481 0.900024 1.3523 1.02119 1.13663 1.23685C0.920965 1.45252 0.799805 1.74503 0.799805 2.05002V31.95C0.799805 32.255 0.920965 32.5475 1.13663 32.7632C1.3523 32.9789 1.64481 33.1 1.9498 33.1Z" stroke="#2CB4D7" stroke-width="1.5" stroke-linecap="round" stroke-linejoin="round"/>
</svg>
