<svg width="46" height="38" viewBox="0 0 46 38" fill="none" xmlns="http://www.w3.org/2000/svg">
<path d="M23 1.84967L19.0805 4.78984L14.1795 1.84967L19.0805 12.629L11.2413 22.4308V32.2308L19.0805 36.1503H26.9196L34.7588 32.2308V22.4308L26.9196 12.6309L31.8205 1.84967L26.9196 4.78984L23 1.84967Z" fill="white"/>
<path d="M33.7793 34.1896L32.6485 33.2849L34.7606 32.2307V22.4308L31.7074 18.6166L35.74 14.5916L31.8205 7.72998L36.7195 9.69073L41.6204 7.72998L37.7008 14.5916L44.5605 24.3877V30.2681L39.6596 34.1876L33.7793 34.1896ZM12.2206 34.1896L13.3515 33.2849L11.2393 32.2307V22.4308L14.2906 18.6166L10.2599 14.5916L14.1795 7.72998L9.28046 9.69073L4.37954 7.72998L8.29913 14.5916L1.43938 24.3896V30.27L6.34029 34.1896H12.2206ZM19.0804 12.6309L16.6309 7.23739L19.0804 8.70939L23 5.76923L26.9195 8.70939L29.369 7.23739L26.9195 12.6309H19.0804Z" fill="#2CB4D7" fill-opacity="0.2"/>
<path d="M26.9196 16.5467L34.7588 26.3485V32.2308L26.9196 36.1504H19.0805L11.2413 32.2308V26.3466L19.0805 16.5486L26.9196 16.5467Z" fill="#2CB4D7" fill-opacity="0.2"/>
<path d="M40.6387 14.5916H33.7789M11.2389 15.5691L10.2614 14.5916L14.1791 7.72998L9.28009 9.69073L4.37917 7.72998L8.29875 14.5916L1.43901 24.3896V30.27L6.33992 34.1896H7.31934M5.35859 14.5916H12.2203M21.0388 22.4308H24.9603L25.9378 24.3896L24.9603 26.3504H21.0388L20.0613 28.3092L21.0388 30.27H24.9603M22.9996 22.4308V20.4701M22.9996 32.2307V30.27M15.1604 12.6309H30.8388" stroke="#2CB4D7" stroke-width="1.5" stroke-linecap="round" stroke-linejoin="round"/>
<path d="M23 1.84967L19.0805 4.78984L14.1795 1.84967L19.0805 12.629L11.2413 22.4308V32.2308L19.0805 36.1503H26.9196L34.7588 32.2308V22.4308L26.9196 12.6309L31.8205 1.84967L26.9196 4.78984L23 1.84967Z" stroke="#2CB4D7" stroke-width="1.5" stroke-linejoin="round"/>
<path d="M34.7606 15.5691L35.7381 14.5916L31.8205 7.72998L36.7195 9.69073L41.6204 7.72998L37.7008 14.5916L44.5605 24.3877V30.2681L39.6596 34.1876H38.6802" stroke="#2CB4D7" stroke-width="1.5" stroke-linecap="round" stroke-linejoin="round"/>
</svg>
