<svg width="40" height="40" viewBox="0 0 40 40" fill="none" xmlns="http://www.w3.org/2000/svg">
<path d="M0.833984 15.2083V35.3333H29.584V27.6666L25.7507 21.9166H18.084V15.2083H0.833984Z" fill="#2CB4D7" fill-opacity="0.2"/>
<path d="M12.3337 35.3333C12.3337 36.35 11.9298 37.325 11.2109 38.0439C10.492 38.7628 9.51699 39.1666 8.50033 39.1666C7.48366 39.1666 6.50864 38.7628 5.78975 38.0439C5.07086 37.325 4.66699 36.35 4.66699 35.3333C4.66699 34.3167 5.07086 33.3416 5.78975 32.6227C6.50864 31.9038 7.48366 31.5 8.50033 31.5C9.51699 31.5 10.492 31.9038 11.2109 32.6227C11.9298 33.3416 12.3337 34.3167 12.3337 35.3333ZM25.7503 35.3333C25.7503 36.35 25.3465 37.325 24.6276 38.0439C23.9087 38.7628 22.9337 39.1666 21.917 39.1666C20.9003 39.1666 19.9253 38.7628 19.2064 38.0439C18.4875 37.325 18.0837 36.35 18.0837 35.3333C18.0837 34.3167 18.4875 33.3416 19.2064 32.6227C19.9253 31.9038 20.9003 31.5 21.917 31.5C22.9337 31.5 23.9087 31.9038 24.6276 32.6227C25.3465 33.3416 25.7503 34.3167 25.7503 35.3333ZM20.0003 10.4166C20.0003 7.87499 21.01 5.43743 22.8072 3.64021C24.6044 1.84298 27.042 0.833313 29.5837 0.833313C32.1253 0.833313 34.5629 1.84298 36.3601 3.64021C38.1573 5.43743 39.167 7.87499 39.167 10.4166C39.167 12.9583 38.1573 15.3959 36.3601 17.1931C34.5629 18.9903 32.1253 20 29.5837 20C27.042 20 24.6044 18.9903 22.8072 17.1931C21.01 15.3959 20.0003 12.9583 20.0003 10.4166Z" fill="white"/>
<path d="M29.5837 5.625V10.4167L33.417 13.2917M25.6928 35.3333H29.5837V27.6667L25.7503 21.9167H18.0837V15.2083H0.83366V35.3333H4.66699" stroke="#2CB4D7" stroke-width="1.5"/>
<path d="M18.0837 21.9166V35.3333M18.0837 35.3333H12.3337M18.0837 35.3333C18.0837 36.35 18.4875 37.325 19.2064 38.0439C19.9253 38.7628 20.9003 39.1666 21.917 39.1666C22.9337 39.1666 23.9087 38.7628 24.6276 38.0439C25.3465 37.325 25.7503 36.35 25.7503 35.3333C25.7503 34.3167 25.3465 33.3416 24.6276 32.6227C23.9087 31.9039 22.9337 31.5 21.917 31.5C20.9003 31.5 19.9253 31.9039 19.2064 32.6227C18.4875 33.3416 18.0837 34.3167 18.0837 35.3333ZM12.3337 35.3333C12.3337 36.35 11.9298 37.325 11.2109 38.0439C10.492 38.7628 9.51699 39.1666 8.50033 39.1666C7.48366 39.1666 6.50864 38.7628 5.78975 38.0439C5.07086 37.325 4.66699 36.35 4.66699 35.3333C4.66699 34.3167 5.07086 33.3416 5.78975 32.6227C6.50864 31.9039 7.48366 31.5 8.50033 31.5C9.51699 31.5 10.492 31.9039 11.2109 32.6227C11.9298 33.3416 12.3337 34.3167 12.3337 35.3333ZM20.0003 10.4166C20.0007 8.60343 20.5155 6.82751 21.4849 5.29517C22.4542 3.76283 23.8385 2.53694 25.4767 1.75988C27.115 0.982829 28.9401 0.686496 30.7401 0.905304C32.5401 1.12411 34.241 1.84908 35.6454 2.99601C37.0498 4.14293 38.1001 5.66475 38.6741 7.38472C39.2481 9.10468 39.3224 10.9522 38.8884 12.7127C38.4543 14.4732 37.5297 16.0744 36.2219 17.3305C34.9142 18.5865 33.2769 19.4457 31.5003 19.8083" stroke="#2CB4D7" stroke-width="1.5"/>
</svg>
