<svg width="26" height="36" viewBox="0 0 26 36" fill="none" xmlns="http://www.w3.org/2000/svg">
<path d="M1.31152 33.039C1.31174 33.1834 1.3547 33.3244 1.43498 33.4443C1.51526 33.5643 1.62927 33.6577 1.76262 33.7129C1.89597 33.7681 2.04268 33.7826 2.18424 33.7545C2.3258 33.7264 2.45587 33.657 2.55802 33.555L4.23352 31.881L6.63802 34.2855C6.70589 34.3537 6.78654 34.4077 6.87535 34.4446C6.96415 34.4815 7.05936 34.5005 7.15552 34.5005C7.25168 34.5005 7.3469 34.4815 7.4357 34.4446C7.52451 34.4077 7.60516 34.3537 7.67302 34.2855L10.0775 31.881L12.482 34.2855C12.5499 34.3537 12.6305 34.4077 12.7193 34.4446C12.8082 34.4815 12.9034 34.5005 12.9995 34.5005C13.0957 34.5005 13.1909 34.4815 13.2797 34.4446C13.3685 34.4077 13.4492 34.3537 13.517 34.2855L15.9215 31.881L18.3275 34.2855C18.3952 34.354 18.4758 34.4084 18.5646 34.4455C18.6534 34.4826 18.7488 34.5017 18.845 34.5017C18.9413 34.5017 19.0366 34.4826 19.1254 34.4455C19.2143 34.4084 19.2949 34.354 19.3625 34.2855L21.7655 31.881L23.441 33.555C23.5431 33.6575 23.6733 33.7274 23.8151 33.7557C23.9569 33.7841 24.104 33.7698 24.2376 33.7145C24.3713 33.6593 24.4855 33.5656 24.5659 33.4453C24.6463 33.3251 24.6891 33.1837 24.689 33.039V2.96103C24.6891 2.8164 24.6463 2.675 24.5659 2.55475C24.4855 2.43449 24.3713 2.3408 24.2376 2.28554C24.104 2.23028 23.9569 2.21593 23.8151 2.24433C23.6733 2.27272 23.5431 2.34257 23.441 2.44503L21.7655 4.11903L19.361 1.71453C19.2932 1.64641 19.2125 1.59236 19.1237 1.55548C19.0349 1.5186 18.9397 1.49961 18.8435 1.49961C18.7474 1.49961 18.6522 1.5186 18.5633 1.55548C18.4745 1.59236 18.3939 1.64641 18.326 1.71453L15.9215 4.11903L13.517 1.71453C13.4494 1.64605 13.3688 1.59168 13.2799 1.55457C13.1911 1.51746 13.0958 1.49835 12.9995 1.49835C12.9033 1.49835 12.8079 1.51746 12.7191 1.55457C12.6303 1.59168 12.5497 1.64605 12.482 1.71453L10.0775 4.11903L7.67302 1.71453C7.60516 1.64641 7.52451 1.59236 7.4357 1.55548C7.3469 1.5186 7.25168 1.49961 7.15552 1.49961C7.05936 1.49961 6.96415 1.5186 6.87535 1.55548C6.78654 1.59236 6.70589 1.64641 6.63802 1.71453L4.23352 4.11903L2.55802 2.44503C2.45587 2.34309 2.3258 2.27369 2.18424 2.24559C2.04268 2.21749 1.89597 2.23196 1.76262 2.28716C1.62927 2.34236 1.51526 2.43582 1.43498 2.55575C1.3547 2.67568 1.31174 2.81671 1.31152 2.96103V33.039Z" fill="#2CB4D7" fill-opacity="0.2"/>
<path d="M24.4895 2.49153C24.4231 2.40393 24.3367 2.33348 24.2375 2.28603C24.1038 2.23133 23.957 2.21724 23.8153 2.24552C23.6737 2.2738 23.5435 2.34319 23.441 2.44503L21.7655 4.11903L19.361 1.71453C19.2932 1.64641 19.2125 1.59236 19.1237 1.55548C19.0349 1.5186 18.9397 1.49961 18.8435 1.49961C18.7474 1.49961 18.6522 1.5186 18.5633 1.55548C18.4745 1.59236 18.3939 1.64641 18.326 1.71453L15.9215 4.11903L13.517 1.71453C13.4494 1.64605 13.3688 1.59168 13.2799 1.55457C13.1911 1.51746 13.0958 1.49835 12.9995 1.49835C12.9033 1.49835 12.8079 1.51746 12.7191 1.55457C12.6303 1.59168 12.5497 1.64605 12.482 1.71453L10.0775 4.11903L7.67302 1.71453C7.60516 1.64641 7.52451 1.59236 7.4357 1.55548C7.3469 1.5186 7.25168 1.49961 7.15552 1.49961C7.05936 1.49961 6.96415 1.5186 6.87535 1.55548C6.78654 1.59236 6.70589 1.64641 6.63802 1.71453L4.23352 4.11903L2.55802 2.44503C2.45587 2.34309 2.3258 2.27369 2.18424 2.24559C2.04268 2.21749 1.89597 2.23196 1.76262 2.28716C1.62927 2.34236 1.51526 2.43582 1.43498 2.55575C1.3547 2.67568 1.31174 2.81671 1.31152 2.96103V25.6695L24.4895 2.49153Z" fill="white"/>
<path d="M5.69452 9.96453H17.3825M5.69452 14.3475H11.5385M5.69452 18.7305H11.5385M5.69452 23.115H10.0775M17.3825 25.911V27.4965M18.845 15.8085V17.3985M1.31152 33.039C1.31174 33.1834 1.3547 33.3244 1.43498 33.4443C1.51526 33.5642 1.62927 33.6577 1.76262 33.7129C1.89597 33.7681 2.04268 33.7826 2.18424 33.7545C2.3258 33.7264 2.45587 33.657 2.55802 33.555L4.23352 31.881L6.63802 34.2855C6.70589 34.3537 6.78654 34.4077 6.87535 34.4446C6.96415 34.4815 7.05936 34.5005 7.15552 34.5005C7.25168 34.5005 7.3469 34.4815 7.4357 34.4446C7.52451 34.4077 7.60516 34.3537 7.67302 34.2855L10.0775 31.881L12.482 34.2855C12.5499 34.3537 12.6305 34.4077 12.7193 34.4446C12.8082 34.4815 12.9034 34.5005 12.9995 34.5005C13.0957 34.5005 13.1909 34.4815 13.2797 34.4446C13.3685 34.4077 13.4492 34.3537 13.517 34.2855L15.9215 31.881L18.3275 34.2855C18.3952 34.354 18.4758 34.4084 18.5646 34.4455C18.6534 34.4826 18.7488 34.5017 18.845 34.5017C18.9413 34.5017 19.0366 34.4826 19.1254 34.4455C19.2143 34.4084 19.2949 34.354 19.3625 34.2855L21.7655 31.881L23.441 33.555C23.5431 33.6575 23.6733 33.7274 23.8151 33.7557C23.9569 33.7841 24.104 33.7698 24.2376 33.7145C24.3713 33.6593 24.4855 33.5656 24.5659 33.4453C24.6463 33.3251 24.6891 33.1837 24.689 33.039V2.96103C24.6891 2.8164 24.6463 2.675 24.5659 2.55475C24.4855 2.43449 24.3713 2.3408 24.2376 2.28554C24.104 2.23028 23.9569 2.21593 23.8151 2.24433C23.6733 2.27272 23.5431 2.34257 23.441 2.44503L21.7655 4.11903L19.361 1.71453C19.2932 1.64641 19.2125 1.59236 19.1237 1.55548C19.0349 1.5186 18.9397 1.49961 18.8435 1.49961C18.7474 1.49961 18.6522 1.5186 18.5633 1.55548C18.4745 1.59236 18.3939 1.64641 18.326 1.71453L15.9215 4.11903L13.517 1.71453C13.4494 1.64605 13.3688 1.59168 13.2799 1.55457C13.1911 1.51746 13.0958 1.49835 12.9995 1.49835C12.9033 1.49835 12.8079 1.51746 12.7191 1.55457C12.6303 1.59168 12.5497 1.64605 12.482 1.71453L10.0775 4.11903L7.67302 1.71453C7.60516 1.64641 7.52451 1.59236 7.4357 1.55548C7.3469 1.5186 7.25168 1.49961 7.15552 1.49961C7.05936 1.49961 6.96415 1.5186 6.87535 1.55548C6.78654 1.59236 6.70589 1.64641 6.63802 1.71453L4.23352 4.11903L2.55802 2.44503C2.45587 2.34309 2.3258 2.27369 2.18424 2.24559C2.04268 2.21749 1.89597 2.23196 1.76262 2.28716C1.62927 2.34236 1.51526 2.43582 1.43498 2.55575C1.3547 2.67568 1.31174 2.81671 1.31152 2.96103V33.039Z" stroke="#2CB4D7" stroke-width="1.5" stroke-linecap="round" stroke-linejoin="round"/>
<path d="M15.9229 23.844C15.9226 24.278 16.0511 24.7022 16.292 25.0631C16.5329 25.424 16.8755 25.7053 17.2764 25.8715C17.6772 26.0376 18.1184 26.0811 18.5439 25.9964C18.9695 25.9117 19.3604 25.7026 19.6671 25.3957C19.9739 25.0888 20.1826 24.6977 20.267 24.2721C20.3514 23.8464 20.3077 23.4053 20.1413 23.0046C19.9749 22.6038 19.6933 22.2614 19.3323 22.0208C18.9712 21.7801 18.5468 21.6519 18.1129 21.6525C17.6791 21.6525 17.2551 21.5239 16.8944 21.2829C16.5337 21.0418 16.2526 20.6992 16.0867 20.2984C15.9208 19.8976 15.8774 19.4566 15.9622 19.0312C16.0469 18.6057 16.2559 18.215 16.5628 17.9083C16.8696 17.6017 17.2605 17.3929 17.686 17.3085C18.1115 17.224 18.5525 17.2677 18.9532 17.4339C19.3539 17.6001 19.6963 17.8814 19.9371 18.2423C20.1779 18.6031 20.3062 19.0272 20.3059 19.461" stroke="#2CB4D7" stroke-width="1.5" stroke-linecap="round" stroke-linejoin="round"/>
</svg>
