<svg width="46" height="36" viewBox="0 0 46 36" fill="none" xmlns="http://www.w3.org/2000/svg">
<path d="M1.43931 8.20011L17.1196 1.33844L32.7998 8.20011V27.7999L17.1215 34.6616L1.43931 27.7999V8.20011Z" fill="white"/>
<path d="M9.48967 4.6792L25.1699 11.5389L17.1199 15.0599V34.6597L1.44159 27.7999V8.20012L9.48967 4.6792Z" fill="#2CB4D7" fill-opacity="0.2"/>
<path d="M24.9607 4.76929L9.28046 11.6904V18M44.5605 20.2579L44.4685 20.302L36.7195 23.8804M43.1767 14.0364L36.7195 17.0206M41.8849 7.77462L36.7195 10.1609M17.1196 15.0599V34.6597" stroke="#2CB4D7" stroke-width="1.5" stroke-linecap="round" stroke-linejoin="round"/>
<path d="M32.7998 8.20013V27.8L17.1215 34.6616L1.43931 27.8V8.20013" stroke="#2CB4D7" stroke-width="1.5" stroke-linecap="round" stroke-linejoin="round"/>
<path d="M32.7998 8.20013L17.1215 15.0618L1.43931 8.20013" stroke="#2CB4D7" stroke-width="1.5" stroke-linecap="round" stroke-linejoin="round"/>
<path d="M32.7998 8.20011L17.1215 1.33844L1.43931 8.20011" stroke="#2CB4D7" stroke-width="1.5" stroke-linecap="round" stroke-linejoin="round"/>
</svg>
