<svg width="41" height="39" viewBox="0 0 41 39" fill="none" xmlns="http://www.w3.org/2000/svg">
<path d="M36.6572 2.65027L37.8086 17.6278L18.1211 37.3153L2.32324 21.5175L22.2979 1.5448L36.6572 2.65027ZM26.1104 8.91296C25.5494 8.90809 24.9929 9.01504 24.4736 9.22742C23.9543 9.43989 23.4817 9.7535 23.085 10.1503C22.6883 10.5469 22.3746 11.0188 22.1621 11.538C21.9496 12.0573 21.8428 12.6146 21.8477 13.1757C21.8526 13.7366 21.969 14.2911 22.1904 14.8065C22.4119 15.322 22.7342 15.7879 23.1377 16.1776C23.9347 16.9474 25.0024 17.3738 26.1104 17.3641C27.2182 17.3544 28.2781 16.9102 29.0615 16.1268C29.8449 15.3435 30.2891 14.2835 30.2988 13.1757C30.3085 12.0678 29.8828 11 29.1133 10.203C28.7235 9.7994 28.2568 9.4772 27.7412 9.25574C27.2258 9.03432 26.6713 8.91787 26.1104 8.91296Z" fill="#2CB4D7" fill-opacity="0.1" stroke="#2CB4D7" stroke-width="0.753099"/>
<path d="M39.3405 29.718H35.4913H39.3405ZM39.3405 37.4163H27.793H39.3405Z" fill="#2CB4D7" fill-opacity="0.1"/>
<path d="M39.3405 29.718H35.4913M39.3405 37.4163H27.793" stroke="#2CB4D7" stroke-width="1.5" stroke-linecap="square"/>
<path d="M18.1221 37.8494L1.79004 21.5192L22.1541 1.1571L37.0119 2.30031L38.1994 17.7721L18.1221 37.8494Z" fill="#2CB4D7" fill-opacity="0.1" stroke="#2CB4D7" stroke-width="1.5"/>
<path d="M23.3989 10.4644C23.7539 10.0968 24.1787 9.80354 24.6483 9.60181C25.1179 9.40008 25.623 9.29389 26.1341 9.28945C26.6452 9.28501 27.152 9.3824 27.6251 9.57594C28.0981 9.76948 28.5279 10.0553 28.8893 10.4167C29.2507 10.7781 29.5365 11.2079 29.7301 11.6809C29.9236 12.154 30.021 12.6608 30.0166 13.1719C30.0121 13.683 29.9059 14.1881 29.7042 14.6577C29.5025 15.1273 29.2092 15.5521 28.8416 15.9071C28.1156 16.6083 27.1433 16.9963 26.1341 16.9875C25.1248 16.9787 24.1594 16.5739 23.4458 15.8603C22.7321 15.1466 22.3273 14.1812 22.3185 13.1719C22.3097 12.1627 22.6977 11.1904 23.3989 10.4644Z" fill="#2CB4D7" fill-opacity="0.1" stroke="#2CB4D7" stroke-width="1.5"/>
</svg>
